<svg width="20" height="20" viewBox="0 0 20 20" fill="none" xmlns="http://www.w3.org/2000/svg">
<path fill-rule="evenodd" clip-rule="evenodd" d="M10.9708 9.99449L10.9695 9.69941C10.9594 8.52901 10.8888 7.48478 10.7672 6.82302C10.7672 6.81109 10.6344 6.15476 10.5499 5.9363C10.4172 5.62053 10.1772 5.35249 9.87627 5.18267C9.63537 5.0615 9.38264 5 9.1181 5C8.91015 5.00964 8.5672 5.11428 8.32243 5.20202L8.11902 5.27997C6.77177 5.81513 4.19634 7.5638 3.20999 8.63319L3.13727 8.70794L2.81272 9.0582C2.60818 9.32623 2.5 9.65394 2.5 10.0064C2.5 10.3222 2.59636 10.638 2.78909 10.8932C2.84678 10.9758 2.93972 11.0819 3.02244 11.1715L3.33833 11.5022C4.42538 12.6036 6.77904 14.1485 7.99902 14.6604C7.99902 14.6714 8.7572 14.9881 9.1181 15H9.16628C9.71991 15 10.2372 14.6842 10.5017 14.1739C10.574 14.0343 10.6433 13.761 10.696 13.521L10.7908 13.0677C10.899 12.3389 10.9708 11.2209 10.9708 9.99449ZM16.2473 11.2653C16.9391 11.2653 17.5 10.6989 17.5 10.0004C17.5 9.30182 16.9391 8.73545 16.2473 8.73545L13.1646 9.00808C12.6219 9.00808 12.1819 9.45144 12.1819 10.0004C12.1819 10.5484 12.6219 10.9927 13.1646 10.9927L16.2473 11.2653Z" fill="#333333"/>
</svg>
