<svg width="12" height="16" viewBox="0 0 12 16" fill="none" xmlns="http://www.w3.org/2000/svg">
<g clip-path="url(#clip0_1113_1999)">
<path d="M3.28568 15.5C4.78403 15.5 6.00008 14.38 6.00008 13V10.5H3.28568C1.78734 10.5 0.571289 11.62 0.571289 13C0.571289 14.38 1.78734 15.5 3.28568 15.5Z" fill="#0ACF83"/>
<path d="M0.571289 8C0.571289 6.62 1.78734 5.5 3.28568 5.5H6.00008V10.5H3.28568C1.78734 10.5 0.571289 9.38 0.571289 8Z" fill="#A259FF"/>
<path d="M0.571289 3C0.571289 1.62 1.78734 0.5 3.28568 0.5H6.00008V5.5H3.28568C1.78734 5.5 0.571289 4.38 0.571289 3Z" fill="#F24E1E"/>
<path d="M6 0.5H8.7144C10.2127 0.5 11.4288 1.62 11.4288 3C11.4288 4.38 10.2127 5.5 8.7144 5.5H6V0.5Z" fill="#FF7262"/>
<path d="M11.4288 8C11.4288 9.38 10.2127 10.5 8.7144 10.5C7.21605 10.5 6 9.38 6 8C6 6.62 7.21605 5.5 8.7144 5.5C10.2127 5.5 11.4288 6.62 11.4288 8Z" fill="#1ABCFE"/>
</g>
<defs>
<clipPath id="clip0_1113_1999">
<rect width="10.8598" height="15" fill="white" transform="translate(0.570312 0.5)"/>
</clipPath>
</defs>
</svg>
