<svg width="2" height="10" viewBox="0 0 2 10" fill="none" xmlns="http://www.w3.org/2000/svg">
<path d="M0.412 8.124C0.412 7.116 0.392 6.232 0.352 5.472C0.312 4.712 0.292 4.264 0.292 4.128C0.292 3.992 0.344 3.86 0.448 3.732C0.56 3.596 0.692 3.528 0.844 3.528C0.996 3.528 1.12 3.592 1.216 3.72C1.312 3.84 1.36 4.02 1.36 4.26C1.36 4.492 1.332 4.888 1.276 5.448C1.22 6 1.192 6.576 1.192 7.176C1.192 7.416 1.24 7.648 1.336 7.872C1.44 8.088 1.492 8.288 1.492 8.472C1.492 8.648 1.44 8.792 1.336 8.904C1.24 9.016 1.104 9.072 0.928 9.072C0.76 9.072 0.632 8.976 0.544 8.784C0.456 8.592 0.412 8.372 0.412 8.124ZM0.796 2.172C0.62 2.172 0.48 2.124 0.376 2.028C0.272 1.932 0.22 1.792 0.22 1.608C0.22 1.424 0.284 1.268 0.412 1.14C0.54 1.004 0.692 0.935999 0.868 0.935999C1.044 0.935999 1.184 0.987999 1.288 1.092C1.4 1.188 1.456 1.328 1.456 1.512C1.456 1.696 1.388 1.852 1.252 1.98C1.124 2.108 0.972 2.172 0.796 2.172Z" fill="#000AFF"/>
</svg>
