<svg width="12" height="12" viewBox="0 0 12 12" fill="none" xmlns="http://www.w3.org/2000/svg">
<path d="M11.5284 3.6641C11.2264 2.94927 10.794 2.30822 10.2429 1.75711C9.69177 1.206 9.04958 0.773636 8.33589 0.47156C7.59569 0.159108 6.80938 0 6 0C5.18947 0 4.4043 0.159108 3.6641 0.47156C2.94927 0.773636 2.30822 1.206 1.75711 1.75711C1.20599 2.30822 0.773635 2.95042 0.47156 3.6641C0.159108 4.4043 0 5.19062 0 6C0 6.80938 0.159108 7.5957 0.47156 8.33589C0.773635 9.05073 1.20599 9.69178 1.75711 10.2429C2.30822 10.794 2.95042 11.2264 3.6641 11.5284C4.4043 11.8409 5.19062 12 6 12C6.81053 12 7.59569 11.8409 8.33589 11.5284C9.05073 11.2264 9.69177 10.794 10.2429 10.2429C10.794 9.69178 11.2264 9.04958 11.5284 8.33589C11.8409 7.5957 12 6.80938 12 6C12 5.19062 11.8409 4.4043 11.5284 3.6641ZM4.30976 0.906226C4.0907 1.16679 3.89008 1.47925 3.71022 1.83897C3.61683 2.02575 3.53151 2.22291 3.45196 2.42813C3.42198 2.42467 3.39201 2.42121 3.36203 2.41776C2.72675 2.34512 2.38893 2.2598 2.21253 2.19869C2.79708 1.61875 3.51191 1.17141 4.30976 0.906226ZM1.7721 2.69677C1.84128 2.73482 1.92083 2.76941 2.01537 2.80169C2.2598 2.88586 2.60338 2.95849 3.03805 3.01729C3.10492 3.02652 3.17525 3.03459 3.24558 3.04381C3.01268 3.84397 2.87663 4.74327 2.85127 5.68294H0.642198C0.707917 4.56111 1.11952 3.53036 1.7721 2.69677ZM1.8113 9.35165C1.13682 8.50999 0.70907 7.4608 0.642198 6.31706H2.85127C2.87663 7.28209 3.0196 8.20561 3.26518 9.02191C3.18678 9.03113 3.11184 9.04035 3.03805 9.05073C2.60338 9.10953 2.25865 9.18217 2.01537 9.26633C1.93812 9.294 1.87125 9.32167 1.8113 9.35165ZM2.26672 9.85204C2.45465 9.79208 2.78555 9.71599 3.36318 9.65027C3.40123 9.64566 3.43928 9.6422 3.47848 9.63759C3.54996 9.8186 3.62721 9.99385 3.71022 10.1599C3.89008 10.5208 4.0907 10.8321 4.30976 11.0926C3.53613 10.8367 2.83974 10.4078 2.26672 9.85204ZM5.68178 11.3209C5.48463 11.2644 5.29093 11.156 5.10184 10.9946C4.79746 10.7364 4.52075 10.3605 4.27978 9.8774C4.23251 9.78171 4.18639 9.68255 4.14258 9.58109C4.6176 9.54881 5.14104 9.52921 5.68178 9.52344V11.3209ZM5.68178 8.88816C5.04996 8.89393 4.44812 8.91929 3.91199 8.9608C3.66065 8.17448 3.51422 7.26941 3.4877 6.31706H5.68178V8.88816ZM5.68178 5.68294H3.48655C3.51191 4.75711 3.65142 3.8774 3.89008 3.10722C4.43197 3.14988 5.04074 3.17525 5.68178 3.18101V5.68294ZM5.68178 2.54573C5.12952 2.53997 4.5957 2.52037 4.11376 2.48693C4.16564 2.36126 4.22098 2.2402 4.27863 2.12375C4.5196 1.64066 4.79631 1.2648 5.10069 1.00653C5.28978 0.846272 5.48463 0.736741 5.68063 0.680246V2.54573H5.68178ZM9.78286 2.19869C9.60761 2.26095 9.26864 2.34512 8.63336 2.41776C8.60338 2.42121 8.57456 2.42467 8.54343 2.42813C8.46503 2.22291 8.37856 2.02575 8.28516 1.83897C8.1053 1.47809 7.90469 1.16679 7.68563 0.906226C8.48578 1.17141 9.20061 1.61875 9.78286 2.19869ZM6.31591 0.679093C6.51307 0.735588 6.70676 0.843966 6.89585 1.00538C7.20023 1.26364 7.47694 1.63951 7.71791 2.1226C7.77556 2.23905 7.8309 2.36011 7.88278 2.48578C7.40085 2.51922 6.86702 2.53997 6.31476 2.54458V0.679093H6.31591ZM6.31591 3.17986C6.9558 3.1741 7.56572 3.14873 8.10761 3.10607C8.34627 3.87625 8.48463 4.75711 8.51114 5.68178H6.31706V3.17986H6.31591ZM6.31591 6.31706H8.50999C8.48347 7.26941 8.33705 8.17448 8.0857 8.9608C7.54958 8.91929 6.94773 8.89508 6.31591 8.88816V6.31706ZM6.897 10.9946C6.70792 11.1549 6.51307 11.2644 6.31706 11.3209V9.52344C6.85895 9.52921 7.38124 9.54881 7.85626 9.58109C7.81245 9.68255 7.76633 9.78171 7.71906 9.8774C7.47809 10.3605 7.20138 10.7364 6.897 10.9946ZM7.68793 11.0938C7.90699 10.8332 8.10761 10.5208 8.28747 10.161C8.37048 9.995 8.44773 9.81975 8.51921 9.63874C8.55842 9.64335 8.59646 9.64681 8.63451 9.65142C9.21214 9.71714 9.54304 9.79323 9.73098 9.85319C9.15795 10.4078 8.46157 10.8367 7.68793 11.0938ZM10.1864 9.35165C10.1264 9.32167 10.0596 9.294 9.98232 9.26749C9.73789 9.18332 9.39431 9.11068 8.95965 9.05188C8.88586 9.04151 8.80976 9.03228 8.73251 9.02306C8.97809 8.20676 9.12106 7.28324 9.14643 6.31822H11.3555C11.2886 7.4608 10.862 8.50999 10.1864 9.35165ZM9.14643 5.68294C9.12106 4.74443 8.98616 3.84512 8.75211 3.04497C8.8236 3.03689 8.89277 3.02767 8.95965 3.01845C9.39431 2.95965 9.73905 2.88701 9.98232 2.80284C10.0757 2.77056 10.1564 2.73597 10.2256 2.69792C10.8782 3.53151 11.2898 4.56111 11.3555 5.68294H9.14643Z" fill="url(#paint0_linear_1114_3508)"/>
<defs>
<linearGradient id="paint0_linear_1114_3508" x1="-0.499999" y1="17" x2="-0.36737" y2="-3.59894" gradientUnits="userSpaceOnUse">
<stop stop-color="#1ABCFE"/>
<stop offset="1" stop-color="#FF7262"/>
</linearGradient>
</defs>
</svg>
