<svg width="80" height="70" viewBox="0 0 80 70" fill="none" xmlns="http://www.w3.org/2000/svg">
<path d="M63.4141 60.6227L63.5019 61.7191L65.5483 61.602C66.5108 61.5685 67.3269 62.2757 67.3813 63.2341C67.4064 63.6986 67.2557 64.1422 66.9461 64.4895C66.6364 64.8368 66.2137 65.0419 65.7492 65.067L63.7739 65.1842L63.8242 65.7994C63.9079 66.8707 64.6318 67.7704 65.6613 68.0843C66.7954 68.4316 68.0174 67.9671 68.6367 66.9627L74.621 57.2874C75.3366 56.1282 75.0311 54.6008 73.9305 53.8015L70.1516 51.0771C69.9131 53.09 68.7916 58.1621 63.4141 60.6227Z" fill="#FFDA6E"/>
<path d="M70.8524 31.9922H64.1358C64.0395 32.26 63.9182 32.5278 63.7299 32.7957C63.1356 33.8963 62.0476 34.7081 60.7754 34.9802C60.7335 34.9885 60.6875 34.9843 60.6415 34.9927C60.6289 35.0764 60.6163 35.1559 60.5996 35.2354H70.8483C73.5935 35.2354 75.8282 37.4701 75.8282 40.2154C75.8282 42.9606 73.5935 45.1911 70.8483 45.1911H63.0896L67.9189 48.4344H70.8483C75.3804 48.4344 79.0714 44.7476 79.0714 40.2112C79.0756 35.6832 75.3888 31.9922 70.8524 31.9922Z" fill="#FFFAF3"/>
<path d="M66.2628 63.8827C66.4093 63.7195 66.4804 63.5102 66.4679 63.2926C66.4553 63.075 66.3591 62.8741 66.1959 62.7319C66.0327 62.5854 65.8192 62.5143 65.6058 62.5268L63.5762 62.644L63.7059 64.2719L65.7021 64.1547C65.9197 64.1421 66.1206 64.0459 66.2628 63.8827Z" fill="#FFFAF3"/>
<path d="M69.284 50.4563L63.4461 46.5352C59.8974 49.996 56.1017 51.8415 52.4609 52.6952C52.8459 53.1095 53.2644 53.4945 53.7457 53.8084L62.9649 59.8052C68.6102 57.2567 69.217 51.6365 69.284 50.4563Z" fill="#FFD2D7"/>
<path d="M54.9308 35.2355V33.7332C51.1937 33.1808 50.3274 29.8036 50.1684 28.9081L47.2934 26.8575C46.5444 26.3846 46.2933 25.3802 46.7452 24.5893C46.967 24.2001 47.3144 23.9323 47.7077 23.8067C47.5194 23.2334 47.6701 22.6015 47.9923 22.1328C48.1053 21.9696 48.235 21.8399 48.3731 21.7311C48.189 21.7562 48.0007 21.7729 47.8082 21.7729C47.2098 21.7729 46.6155 21.6432 46.1635 21.367C45.5274 20.9862 45.2387 20.371 45.2931 19.6554C45.1299 19.6094 44.9751 19.5508 44.8202 19.4922C44.5022 20.0655 43.4894 22.2918 43.3597 27.3471C43.3137 29.1215 42.5353 30.7745 41.2254 31.9211C41.2338 33.775 41.2129 34.7292 41.1836 35.2355H54.9308Z" fill="#FC7941"/>
<path d="M57.1406 34.1642L55.835 33.1641V35.5578L56.6552 36.7798C58.6221 36.4492 59.2707 36.0558 59.48 35.8465C59.4925 35.834 59.5929 35.6833 59.7017 35.0723C58.7811 35.0389 57.8855 34.7334 57.1406 34.1642Z" fill="#FF857A"/>
<path d="M56.6639 21.3213C56.4463 21.5682 56.1367 21.9616 55.9316 22.4177C56.2999 22.6814 56.5761 22.8822 56.6765 22.9534L60.6981 25.7907C60.8237 25.8786 60.8906 26.0208 60.8906 26.1673C60.8906 26.2594 60.8655 26.3515 60.8069 26.431C60.6605 26.6402 60.3759 26.6904 60.1667 26.5398L56.5342 23.9787L52.8516 29.7202L57.6976 33.4322C58.5178 34.0599 59.5682 34.2943 60.5809 34.0808C61.5895 33.8632 62.4557 33.2188 62.9454 32.3106C63.7949 31.0929 63.2802 29.7914 63.255 29.737C61.5686 25.5605 58.9447 22.9324 56.6639 21.3213Z" fill="#FC7941"/>
<path d="M50.6893 23.2766L49.3795 22.3601C49.0698 22.222 48.7978 22.5861 48.7476 22.6614C48.5509 22.946 48.3919 23.4858 48.7392 23.8164C48.8354 23.8499 48.9317 23.8876 49.0279 23.9378L50.0365 24.6408C50.2415 24.7831 50.2918 25.0635 50.1537 25.2727C50.0156 25.4778 49.7352 25.5364 49.5259 25.4025L48.35 24.6534C48.3123 24.6492 48.2747 24.645 48.2328 24.645C47.965 24.645 47.693 24.7873 47.5423 25.0509C47.3331 25.415 47.4503 25.8795 47.8018 26.1055L52.1247 29.1856L55.8032 23.4523C54.4808 22.5024 51.8485 20.6652 51.0618 20.3765C50.7981 20.2802 50.568 20.3221 50.3671 20.502C50.0909 20.7573 49.957 21.2135 50.0197 21.657C50.7102 22.0504 51.2417 22.54 51.2668 22.561C51.4426 22.7242 51.4635 23.0004 51.3129 23.1845C51.1622 23.377 50.886 23.4147 50.6893 23.2766Z" fill="#FFD2D7"/>
<path d="M9.52529 12.1085C9.48344 11.8784 9.61736 11.6566 9.83915 11.5896C11.2745 11.1419 12.3501 10.012 12.7183 8.56819L13.8231 4.25781H3.30664L4.41143 8.56819C4.7797 10.012 5.85938 11.1419 7.2906 11.5896C7.51239 11.6566 7.64631 11.8826 7.60446 12.1085L6.62102 17.4944H10.5045L9.52529 12.1085ZM7.85555 6.49251C7.60027 6.49251 7.39522 6.28745 7.39522 6.03218C7.39522 5.7769 7.60027 5.57185 7.85555 5.57185H9.2742C9.52947 5.57185 9.73453 5.7769 9.73453 6.03218C9.73453 6.28745 9.52947 6.49251 9.2742 6.49251H7.85555Z" fill="#FFDA6E"/>
<path d="M10.6449 22.5163C10.6867 22.5163 10.7244 22.5289 10.7662 22.5414H12.3356V18.3984H11.055H6.06669H4.78613V22.5414H6.35544C6.39311 22.5289 6.43495 22.5163 6.4768 22.5163C6.51865 22.5163 6.55632 22.5289 6.59816 22.5414H10.5193C10.5654 22.5289 10.603 22.5163 10.6449 22.5163Z" fill="#FEC270"/>
<path d="M40.2899 32.0052H15.1558C12.4106 32.0052 10.1759 29.7705 10.1759 27.0295V23.4766H6.93262V27.0295C6.93262 31.5617 10.6236 35.2527 15.1558 35.2527H40.2522C40.2774 34.8551 40.2983 33.9554 40.2899 32.0052Z" fill="#FFFAF3"/>
<path d="M33.7748 22.3743C33.6325 22.4245 33.4777 22.4036 33.3563 22.3157L27.3343 18.0723L25.334 23.9436L30.5232 28.1451C31.5861 29.0072 32.9671 29.3504 34.3104 29.0993L40.2487 27.9819C40.2194 26.2703 40.1901 24.9605 40.1901 24.9605C40.1901 22.8346 40.6044 21.2444 40.9267 20.3363C38.8259 20.8342 36.1476 21.5415 33.7748 22.3743Z" fill="#FC7941"/>
<path d="M23.5282 62.5498H20.2598C16.3679 62.5498 13.2042 59.3861 13.2042 55.4942C13.2042 51.6023 16.3679 48.4386 20.2598 48.4386H34.6807L36.0743 45.1953H20.2598C14.581 45.1953 9.96094 49.8154 9.96094 55.4942C9.96094 61.173 14.581 65.7972 20.2598 65.7972H23.5742C23.344 65.3997 23.1892 64.9561 23.139 64.479C23.0636 63.7927 23.2185 63.1273 23.5282 62.5498Z" fill="#FFFAF3"/>
<path d="M30.999 59.3384C32.0787 60.0372 36.184 62.3389 42.0804 61.435L45.5664 53.2871C40.2391 52.9983 36.0585 51.1779 34.7695 50.5586L30.999 59.3384Z" fill="#FFD2D7"/>
<path d="M61.0662 44.9412C61.016 44.9077 60.9741 44.8659 60.9406 44.8156L55.1321 36.1572H52.6128L55.7222 45.0374C55.8059 45.276 55.6803 45.5396 55.4418 45.6233C55.3916 45.64 55.3413 45.6484 55.2911 45.6484C55.1028 45.6484 54.9229 45.5312 54.8601 45.3429L51.6461 36.1614H48.156V46.2887C48.156 46.544 47.9509 46.749 47.6957 46.749C47.4404 46.749 47.2353 46.544 47.2353 46.2887V36.1614H43.7954L41.1966 46.4017C41.1422 46.6109 40.9581 46.749 40.753 46.749C40.7154 46.749 40.6777 46.7448 40.64 46.7365C40.3931 46.6737 40.2467 46.4226 40.3095 46.1799L42.8496 36.1656H40.9539L37.2755 44.7319C37.2755 44.7361 37.2796 44.7403 37.2796 44.7445C37.2796 44.8784 37.221 44.9998 37.1248 45.0835L35.4718 48.9335C35.4676 49.0507 35.4216 49.1553 35.3421 49.2348L35.1328 49.7203C37.4554 50.8502 51.3574 56.8931 62.6648 46.0209L61.0662 44.9412Z" fill="#FEC270"/>
<path d="M25.2242 13.8158C25.1154 13.3764 24.7388 13.1295 24.3873 13.1211C23.9604 13.1295 23.6089 13.4726 23.588 13.8995L23.4875 15.7994C23.5419 16.4899 23.8725 18.3563 24.7681 18.9589C24.9773 19.1012 25.0359 19.3858 24.8936 19.595C24.8058 19.7289 24.6593 19.8001 24.5128 19.8001C24.4249 19.8001 24.337 19.775 24.2575 19.7206C23.0774 18.9254 22.705 16.9544 22.6045 16.1718C22.5376 16.1551 22.4664 16.1342 22.3827 16.1132C22.4874 16.3518 22.5459 16.6196 22.5292 16.9C22.5041 17.3436 22.3158 17.7328 22.0228 18.0215C22.4162 18.4275 22.5669 19.0133 22.5167 19.5239C22.4622 20.0721 22.1986 20.4948 21.8262 20.75C22.1149 21.315 22.1777 21.972 21.9684 22.516C21.9015 22.696 21.7969 22.8466 21.6797 22.9805L24.4919 23.5622L26.6094 17.3478L25.2242 13.8158Z" fill="#FFD2D7"/>
<path d="M30.364 60.0254L29.209 60.4732L29.9162 61.942C30.1171 62.3605 30.1464 62.8292 29.9915 63.2686C29.8409 63.708 29.527 64.0596 29.1085 64.2604C28.8658 64.3776 28.6105 64.432 28.3594 64.432C27.715 64.432 27.0914 64.0679 26.7943 63.4486L25.9657 61.7286L25.5975 61.8709C24.5722 62.2643 23.9361 63.3063 24.0491 64.3943C24.1118 65.0053 24.4048 65.5452 24.8358 65.9385L24.84 65.9427C25.1832 66.2566 25.6142 66.4784 26.0996 66.5537L37.7837 68.3741C38.9805 68.5624 40.1481 67.8217 40.4955 66.6583L41.7551 62.4191C35.5197 63.2226 31.3432 60.695 30.364 60.0254Z" fill="#FFDA6E"/>
<path d="M26.8359 61.3908L27.6352 63.0438C27.7315 63.2405 27.8947 63.387 28.0998 63.4581C28.3048 63.5293 28.5266 63.5167 28.7233 63.4247C28.92 63.3284 29.0665 63.1652 29.1376 62.9602C29.2087 62.7551 29.1962 62.5333 29.0999 62.3366L28.3592 60.8008L26.8359 61.3908Z" fill="#FFFAF3"/>
<path d="M48.0617 5.32059C48.1915 5.32896 48.3128 5.39173 48.3923 5.49216C48.4886 5.61352 50.6731 8.296 55.3475 8.06165C53.9791 5.60934 51.2171 3.92285 48.0324 3.92285C44.8896 3.92285 42.1528 5.5633 40.7676 7.96539C42.316 7.8273 45.7852 7.31675 47.7102 5.44194C47.8023 5.35825 47.9278 5.30803 48.0617 5.32059Z" fill="#C0735F"/>
<path d="M53.3271 18.4549C54.7291 18.9822 57.4073 20.2585 59.9517 22.9033C59.8931 21.0871 59.7174 19.3128 59.4705 19.0198C58.7925 18.3377 55.9468 17.9192 54.1934 17.7979C53.9214 18.0322 53.6326 18.254 53.3271 18.4549Z" fill="#FF857A"/>
<path d="M57.191 11.5253C57.191 11.9019 57.1575 12.2702 57.1031 12.6301C57.9443 12.9983 59.0072 12.9983 60.0367 12.5882C61.1624 12.1404 62.0035 11.316 62.2881 10.3786C62.5852 9.40355 62.263 8.21924 61.4846 7.43668C61.0703 7.01819 60.4552 6.82988 60.0074 6.74618L59.6977 6.69178C59.2709 6.61645 58.8273 6.54112 58.4004 6.34862C57.3877 5.89248 57.2705 5.1141 57.1659 4.42779C57.1282 4.18088 57.0905 3.92561 57.011 3.68289C56.4921 2.10939 54.8768 0.920898 53.2489 0.920898C52.5123 0.920898 51.8177 1.20965 51.2904 1.72857C50.8468 2.16798 50.5831 2.72456 50.5078 3.32718C54.3579 4.33154 57.191 7.62081 57.191 11.5253Z" fill="#C0735F"/>
<path d="M54.9278 32.4604L51.9775 30.2006L51.333 29.7402C51.7389 30.8534 52.7015 32.4227 54.9278 32.8077V32.4604Z" fill="#FF857A"/>
<path d="M54.2466 19.8828C54.0917 20.1088 53.8825 20.4603 53.7109 20.8914C54.2173 21.2261 54.7278 21.5777 55.184 21.8957C55.4058 21.4563 55.6778 21.0839 55.908 20.8202C55.3054 20.4394 54.7446 20.1255 54.2466 19.8828Z" fill="#FF857A"/>
<path d="M46.1885 19.8828C46.2052 20.1799 46.3475 20.4185 46.6363 20.5901C47.3561 21.0253 48.7119 20.929 49.3271 20.4143C49.4192 20.226 49.5322 20.0586 49.6703 19.9163C49.1388 20.0042 48.5948 20.0586 48.0382 20.0586C47.4021 20.0586 46.7827 19.9958 46.1885 19.8828Z" fill="#FFD2D7"/>
<path d="M53.4123 19.4934C52.8725 19.2632 52.4833 19.1377 52.2866 19.0791C51.9644 19.2381 51.6254 19.3762 51.2822 19.4976C51.3157 19.506 51.3492 19.5101 51.3827 19.5227C51.7216 19.6482 52.295 19.9788 52.9394 20.389C53.0943 20.0249 53.2616 19.7236 53.4123 19.4934Z" fill="#FC7941"/>
<path d="M21.0681 18.4881C20.9886 18.5007 20.9091 18.5132 20.8254 18.5132C20.8087 18.5132 20.7919 18.5132 20.7752 18.5132L19.8838 18.4672C19.5951 18.4588 19.3105 18.3709 19.0594 18.2287C19.005 18.2245 18.9171 18.3124 18.8293 18.4923C18.687 18.7894 18.7037 19.1326 18.8753 19.4339C19.0636 19.7645 19.3984 19.9779 19.775 20.0114C20.0052 20.0323 20.1642 20.0532 20.2939 20.07C20.5492 20.1035 20.6706 20.116 21.0974 20.0867C21.4238 20.0616 21.5703 19.7226 21.5996 19.4381C21.6247 19.1451 21.5452 18.622 21.0681 18.4881Z" fill="#FFD2D7"/>
<path d="M20.9049 16.0182L19.9843 15.7713C19.8127 15.7504 19.5783 15.8174 19.39 15.968C19.2017 16.1187 19.0845 16.3321 19.0594 16.5664C19.0343 16.8133 19.1096 17.0561 19.277 17.2402C19.4402 17.4285 19.6704 17.5331 19.9173 17.5373L20.8087 17.5834C21.2397 17.5541 21.5829 17.2695 21.608 16.8426C21.6289 16.4242 21.3234 16.0601 20.9049 16.0182Z" fill="#FFD2D7"/>
<path d="M20.7174 21.0184C20.5165 21.0184 20.3743 21.0016 20.1776 20.9765C20.0562 20.9598 19.9097 20.9431 19.6963 20.9221C19.4703 20.9012 19.2527 20.8343 19.0518 20.7422C18.5622 21.0477 18.6208 21.5624 18.6543 21.7131C18.7254 22.0562 19.0058 22.4789 19.5498 22.5375C19.8051 22.5626 19.9474 22.5877 20.052 22.6044C20.2069 22.6337 20.2278 22.6337 20.5458 22.6003C20.8262 22.571 21.0145 22.4287 21.1108 22.1818C21.2447 21.8344 21.1526 21.3825 20.9057 21.0142C20.8388 21.0184 20.776 21.0184 20.7174 21.0184Z" fill="#FFD2D7"/>
<path d="M42.4376 27.3376C42.5464 23.1947 43.2286 20.8595 43.7056 19.7129C43.2662 19.805 42.6929 19.9305 42.0192 20.0812C41.7848 20.6126 41.1152 22.3535 41.1152 24.9481C41.1152 24.9481 41.1822 27.8273 41.2073 30.6353C41.9648 29.7188 42.4042 28.5638 42.4376 27.3376Z" fill="#FF857A"/>
<path d="M49.8211 13.4766H46.2598C46.4648 14.2717 47.1846 14.8576 48.0425 14.8576C48.8962 14.8576 49.616 14.2675 49.8211 13.4766Z" fill="#FF857A"/>
<path d="M56.2594 11.5342C56.2594 10.6261 56.0795 9.75983 55.7614 8.95635C55.4225 8.98146 55.0835 9.00657 54.7654 9.00657C50.9907 9.00657 48.7895 7.21546 47.9986 6.42871C45.517 8.50857 41.4661 8.86846 40.3111 8.93124C39.9888 9.74728 39.8047 10.6219 39.8047 11.5342C39.8047 15.7274 43.4957 19.138 48.0321 19.138C52.5684 19.138 56.2594 15.7274 56.2594 11.5342ZM50.2835 9.61755C50.6894 9.61755 51.02 10.0067 51.02 10.4838C51.02 10.9609 50.6894 11.3501 50.2835 11.3501C49.8776 11.3501 49.547 10.9609 49.547 10.4838C49.547 10.0067 49.8776 9.61755 50.2835 9.61755ZM45.0483 10.4838C45.0483 10.0067 45.3789 9.61755 45.7848 9.61755C46.1907 9.61755 46.5213 10.0067 46.5213 10.4838C46.5213 10.9609 46.1907 11.3501 45.7848 11.3501C45.3747 11.3501 45.0483 10.9609 45.0483 10.4838ZM45.2743 13.0282C45.2743 12.7729 45.4793 12.5679 45.7346 12.5679H50.3295C50.5848 12.5679 50.7898 12.7729 50.7898 13.0282C50.7898 14.5473 49.5553 15.786 48.0321 15.786C46.513 15.786 45.2743 14.5473 45.2743 13.0282Z" fill="#FFD2D7"/>
<path d="M45.7756 11.3497C46.1824 11.3497 46.5121 10.9619 46.5121 10.4834C46.5121 10.005 46.1824 9.61719 45.7756 9.61719C45.3688 9.61719 45.0391 10.005 45.0391 10.4834C45.0391 10.9619 45.3688 11.3497 45.7756 11.3497Z" fill="#1E1E1E"/>
<path d="M50.2873 11.3497C50.6932 11.3497 51.0238 10.9605 51.0238 10.4834C51.0238 10.0064 50.6932 9.61719 50.2873 9.61719C49.8814 9.61719 49.5508 10.0064 49.5508 10.4834C49.5508 10.9605 49.8814 11.3497 50.2873 11.3497Z" fill="#1E1E1E"/>
<path d="M9.72213 6.03553C9.72213 5.78025 9.51707 5.5752 9.2618 5.5752H7.84314C7.58787 5.5752 7.38281 5.78025 7.38281 6.03553C7.38281 6.2908 7.58787 6.49586 7.84314 6.49586H9.2618C9.51707 6.49167 9.72213 6.28662 9.72213 6.03553Z" fill="#1E1E1E"/>
<path d="M70.8562 31.0807H64.3487C64.4241 30.1559 64.1353 29.4445 64.1186 29.3984C63.2314 27.1972 62.1015 25.4145 60.9005 23.9623C60.8963 22.4139 60.8084 19.0577 60.1388 18.3798C59.2558 17.4884 56.5775 17.1034 55.0835 16.9527C55.9456 15.9819 56.5733 14.8268 56.9081 13.5672C57.3727 13.7388 57.8832 13.8309 58.4105 13.8309C59.0508 13.8309 59.7203 13.7011 60.369 13.4459C61.75 12.8976 62.7962 11.8514 63.1603 10.6504C63.5578 9.34054 63.1561 7.82981 62.1308 6.79616C61.6663 6.32746 61.0093 6.00523 60.1723 5.84621L59.8459 5.78762C59.4567 5.72066 59.0884 5.6537 58.7662 5.51142C58.2305 5.2687 58.1636 4.96321 58.0631 4.28945C58.0213 4.01744 57.9753 3.71194 57.8706 3.3939C57.2346 1.46051 55.2426 0 53.238 0C52.2588 0 51.3339 0.38082 50.6351 1.07132C50.0617 1.63627 49.7102 2.35606 49.5972 3.13444C49.0867 3.05074 48.5636 3.00052 48.0321 3.00052C44.2197 3.00052 40.9514 5.185 39.5788 8.27759C39.5704 8.29433 39.5662 8.31107 39.5578 8.32781C39.1268 9.31543 38.8841 10.3909 38.8841 11.5208C38.8841 14.626 40.6794 17.3419 43.3493 18.8317C41.4117 19.2418 37.2436 20.1876 33.6865 21.4138L27.4762 17.0406L26.0994 13.5463C25.9111 12.7512 25.1955 12.2071 24.3669 12.2071C23.463 12.2281 22.7181 12.952 22.6721 13.856L22.6009 15.2244C21.9732 15.0612 20.9353 14.8352 20.0942 14.8812C19.6339 14.8436 19.1903 14.9733 18.8304 15.2579C18.4496 15.5634 18.2068 15.9986 18.1566 16.484C18.119 16.869 18.2068 17.2582 18.4035 17.5888C18.2529 17.7186 18.1148 17.8818 18.0102 18.1036C17.7381 18.6769 17.7632 19.3297 18.0855 19.8947C18.1483 20.0035 18.2278 20.0997 18.3073 20.1918C17.8428 20.6228 17.621 21.2547 17.7591 21.9118C17.9306 22.7236 18.5793 23.322 19.3786 23.4392C19.3911 23.4434 19.3995 23.4518 19.4121 23.4518L24.5971 24.5273L29.9495 28.8586C30.9496 29.6662 32.1842 30.0973 33.448 30.0973C33.7911 30.0973 34.1385 30.0638 34.4816 30.001L40.2651 28.913C40.2734 29.6202 40.286 30.3609 40.2902 31.0849H15.1603C12.9214 31.0849 11.101 29.2645 11.101 27.0256V23.4727H12.7917C13.0469 23.4727 13.252 23.2676 13.252 23.0124V17.9445C13.252 17.6893 13.0469 17.4842 12.7917 17.4842H11.4358L10.4942 12.3201C11.4567 11.9393 12.2602 11.2949 12.8335 10.4704C14.5702 10.3574 16.0893 9.16896 16.5748 7.47829L17.0476 5.84202C17.2192 5.24359 17.1062 4.61168 16.7296 4.11369C16.353 3.61569 15.7838 3.33112 15.1603 3.33112H14.4112H2.71461H1.96552C1.34198 3.33112 0.768663 3.61569 0.396214 4.11369C0.0195792 4.61168 -0.093405 5.2394 0.078173 5.83783L0.55105 7.4741C1.03649 9.16477 2.55559 10.3533 4.29229 10.4663C4.86561 11.2907 5.67328 11.9351 6.63161 12.3159L5.69002 17.48H4.33414C4.07887 17.48 3.87381 17.6851 3.87381 17.9404V22.9998C3.87381 23.2551 4.07887 23.4601 4.33414 23.4601H6.02481V27.0131C6.02481 32.0516 10.1259 36.1527 15.1645 36.1527H39.9596L36.4736 44.2713H20.2658C14.0806 44.2713 9.04625 49.3056 9.04625 55.4908C9.04625 61.676 14.0806 66.7104 20.2658 66.7104H24.3502C24.8021 67.087 25.3545 67.3506 25.9655 67.4469L37.6495 69.2673C37.8211 69.2924 37.9927 69.3049 38.1643 69.3049C39.6248 69.3049 40.9597 68.3424 41.3866 66.9028L42.8429 61.9982L46.5632 53.3063C46.7097 53.3105 46.8562 53.3189 47.0026 53.3189C48.4255 53.3189 49.9153 53.1933 51.4344 52.913C51.9533 53.5574 52.5559 54.1224 53.2548 54.5743L62.5032 60.5921L62.9217 65.8608C63.0347 67.313 64.0098 68.5266 65.4033 68.9534C65.7423 69.058 66.0896 69.1082 66.4328 69.1082C67.6297 69.1082 68.7763 68.4973 69.4291 67.4385L75.4093 57.7632C76.376 56.1981 75.9658 54.1266 74.4718 53.0511L70.0276 49.8455H70.0234C70.0192 49.8455 70.0192 49.8413 70.015 49.8371L69.2994 49.3559H70.8603C75.8989 49.3559 80 45.2547 80 40.2162C79.9958 35.1819 75.8989 31.0807 70.8562 31.0807ZM63.2649 29.7458C63.2858 29.8002 63.8047 31.0975 62.9552 32.3194C62.4614 33.2275 61.5993 33.872 60.5908 34.0896C59.5781 34.303 58.5277 34.0687 57.7074 33.441L52.8614 29.729L56.544 23.9874L60.1765 26.5485C60.3815 26.695 60.6703 26.649 60.8168 26.4397C60.8753 26.3602 60.9005 26.2682 60.9005 26.1761C60.9005 26.0338 60.8335 25.8915 60.7079 25.7995L56.6863 22.9622C56.5859 22.891 56.3139 22.6901 55.9414 22.4265C56.1465 21.9662 56.4562 21.577 56.6738 21.3301C58.9545 22.937 61.5784 25.5651 63.2649 29.7458ZM60.1346 36.4959C60.2058 36.4247 60.2811 36.3243 60.3564 36.1611H70.8562C73.095 36.1611 74.9154 37.9815 74.9154 40.2204C74.9154 42.4593 73.095 44.2797 70.8562 44.2797H61.729L61.6579 44.2294L57.222 37.6132C58.7076 37.337 59.6701 36.9688 60.1346 36.4959ZM56.6612 36.7805L55.841 35.5585V33.1648L57.1467 34.1649C57.8916 34.7341 58.7871 35.0396 59.7036 35.0689C59.5948 35.684 59.4944 35.8305 59.4818 35.8431C59.2767 36.0565 58.6281 36.454 56.6612 36.7805ZM41.215 31.9302C42.5249 30.7794 43.3074 29.1306 43.3493 27.3562C43.479 22.3009 44.4959 20.0746 44.8098 19.5013C44.9688 19.5557 45.1237 19.6143 45.2827 19.6645C45.2283 20.3801 45.5212 20.9953 46.1531 21.3761C46.6093 21.6523 47.1993 21.782 47.7978 21.782C47.9861 21.782 48.1744 21.7653 48.3627 21.7402C48.2246 21.849 48.0949 21.9787 47.9819 22.1419C47.6597 22.6106 47.509 23.2425 47.6973 23.8159C47.304 23.9414 46.9566 24.2092 46.7348 24.5984C46.2829 25.3894 46.5339 26.3937 47.283 26.8666L50.158 28.9172C50.3212 29.8127 51.1875 33.1899 54.9203 33.7423V35.2446H41.169C41.2025 34.7341 41.2234 33.7841 41.215 31.9302ZM51.2628 22.5562C51.2377 22.5353 50.7062 22.0457 50.0157 21.6523C49.9529 21.2087 50.0827 20.7484 50.3631 20.4973C50.5639 20.3173 50.7941 20.2797 51.0577 20.3717C51.8403 20.6605 54.4767 22.4976 55.7992 23.4476L52.1207 29.1808L47.7978 26.1008C47.442 25.8748 47.3291 25.4145 47.5383 25.0462C47.689 24.7826 47.9651 24.6403 48.2288 24.6403C48.2665 24.6403 48.3041 24.6445 48.346 24.6486L49.5219 25.3977C49.7312 25.5316 50.0115 25.473 50.1496 25.268C50.2877 25.0588 50.2375 24.7784 50.0325 24.6361L49.0239 23.933C48.9318 23.8828 48.8356 23.841 48.7352 23.8117C48.3878 23.4769 48.5468 22.9412 48.7435 22.6567C48.7979 22.5813 49.0658 22.2173 49.3754 22.3554L50.6853 23.2718C50.882 23.4099 51.154 23.3723 51.3046 23.1839C51.4595 22.9956 51.4386 22.7236 51.2628 22.5562ZM51.2754 19.4887C51.6185 19.3674 51.9575 19.2293 52.2797 19.0703C52.4764 19.1288 52.8656 19.2586 53.4054 19.4846C53.259 19.7147 53.0874 20.016 52.9325 20.3759C52.2881 19.9658 51.7148 19.6352 51.3758 19.5097C51.3423 19.5013 51.3088 19.5013 51.2754 19.4887ZM53.7109 20.8865C53.8825 20.4554 54.0917 20.1081 54.2466 19.8779C54.7446 20.1248 55.3053 20.4345 55.9038 20.8153C55.6778 21.0832 55.4016 21.4556 55.1798 21.8908C54.7278 21.5728 54.2173 21.2213 53.7109 20.8865ZM49.321 20.4094C48.7101 20.9241 47.3542 21.0204 46.6302 20.5852C46.3456 20.4136 46.2033 20.1792 46.1824 19.8779C46.7808 19.9909 47.396 20.0537 48.0321 20.0537C48.5887 20.0537 49.1327 19.9993 49.6642 19.9114C49.5261 20.0537 49.4089 20.2211 49.321 20.4094ZM51.3256 29.7458L51.97 30.2061L54.9203 32.4659V32.8132C52.694 32.4282 51.7315 30.8589 51.3256 29.7458ZM59.4776 19.0242C59.7245 19.3214 59.9003 21.0915 59.9589 22.9077C57.4145 20.2588 54.7362 18.9866 53.3343 18.4593C53.6356 18.2584 53.9243 18.0366 54.2005 17.8023C55.954 17.9236 58.8039 18.3421 59.4776 19.0242ZM51.2837 1.72833C51.811 1.20942 52.5057 0.920662 53.2422 0.920662C54.8659 0.920662 56.4855 2.10915 57.0044 3.68265C57.0839 3.92537 57.1216 4.18064 57.1592 4.42755C57.2638 5.11386 57.3768 5.89224 58.3937 6.34838C58.8206 6.54089 59.2642 6.61621 59.691 6.69154L60.0007 6.74594C60.4443 6.82964 61.0637 7.01796 61.478 7.43644C62.2521 8.219 62.5744 9.40331 62.2814 10.3784C61.9969 11.3158 61.1557 12.1402 60.03 12.588C59.0005 12.9981 57.9376 12.9939 57.0965 12.6298C57.1467 12.2657 57.1843 11.8975 57.1843 11.525C57.1843 7.62057 54.3512 4.3313 50.5053 3.32275C50.5765 2.72851 50.8401 2.16774 51.2837 1.72833ZM48.0321 3.92118C51.2168 3.92118 53.9787 5.60349 55.3472 8.05998C50.6769 8.29433 48.4883 5.61186 48.392 5.49049C48.3125 5.39006 48.1911 5.32729 48.0614 5.31892C47.9275 5.30636 47.8061 5.35658 47.7099 5.44865C45.7807 7.32345 42.3114 7.834 40.7672 7.9721C42.1524 5.56582 44.8893 3.92118 48.0321 3.92118ZM39.8047 11.5292C39.8047 10.6127 39.9889 9.73809 40.3111 8.92624C41.4703 8.86347 45.517 8.50357 47.9986 6.42371C48.7854 7.21464 50.9908 9.00157 54.7655 9.00157C55.0835 9.00157 55.4225 8.97646 55.7615 8.95135C56.0795 9.75902 56.2595 10.6253 56.2595 11.5292C56.2595 15.7224 52.5685 19.133 48.0321 19.133C43.4958 19.133 39.8047 15.7224 39.8047 11.5292ZM42.0143 20.0746C42.6881 19.9198 43.2614 19.7984 43.7008 19.7064C43.2237 20.853 42.5416 23.1881 42.4328 27.3311C42.4035 28.5573 41.9599 29.7123 41.2066 30.6329C41.1815 27.8249 41.1146 24.9458 41.1146 24.9458C41.1104 22.347 41.78 20.6061 42.0143 20.0746ZM21.1111 22.1838C21.0149 22.4307 20.8224 22.573 20.5462 22.6023C20.2281 22.6357 20.2072 22.6357 20.0523 22.6064C19.9477 22.5897 19.8054 22.5646 19.5502 22.5395C19.0061 22.4809 18.7258 22.0582 18.6546 21.7151C18.6211 21.5602 18.5626 21.0497 19.0522 20.7442C19.2572 20.8363 19.4707 20.9032 19.6966 20.9241C19.9101 20.9451 20.0607 20.9618 20.1779 20.9785C20.3746 21.0037 20.5169 21.0204 20.7177 21.0204C20.7721 21.0204 20.8349 21.0204 20.9061 21.0162C21.153 21.3803 21.245 21.8364 21.1111 22.1838ZM21.1027 20.083C20.6759 20.1123 20.5587 20.0997 20.2993 20.0662C20.1695 20.0495 20.0105 20.0286 19.7803 20.0077C19.4037 19.9742 19.0689 19.7566 18.8806 19.4302C18.709 19.1288 18.6923 18.7899 18.8346 18.4886C18.9224 18.3086 19.0103 18.2207 19.0647 18.2249C19.32 18.3672 19.6004 18.4551 19.8891 18.4635L20.7805 18.5095C20.7973 18.5095 20.814 18.5095 20.8307 18.5095C20.9144 18.5095 20.9939 18.4969 21.0735 18.4844C21.5505 18.6183 21.6342 19.1414 21.6049 19.4302C21.5756 19.7189 21.4292 20.0579 21.1027 20.083ZM20.814 17.5888L19.9226 17.5428C19.6757 17.5344 19.4456 17.4298 19.2823 17.2457C19.1191 17.0574 19.0396 16.8188 19.0647 16.5719C19.0898 16.3334 19.207 16.12 19.3953 15.9735C19.5836 15.8228 19.818 15.7559 19.9896 15.7768L20.9102 16.0237C21.3287 16.0656 21.6384 16.4296 21.6133 16.8481C21.5882 17.275 21.245 17.5637 20.814 17.5888ZM24.4925 23.5606L21.6803 22.9789C21.7974 22.845 21.902 22.6943 21.969 22.5144C22.1782 21.9703 22.1155 21.3175 21.8267 20.7484C22.1992 20.4931 22.467 20.0704 22.5172 19.5222C22.5674 19.0117 22.4168 18.4258 22.0234 18.0199C22.3163 17.7353 22.5047 17.3419 22.5298 16.8983C22.5465 16.618 22.4879 16.3543 22.3833 16.1116C22.467 16.1325 22.5423 16.1534 22.6051 16.1702C22.7055 16.9527 23.078 18.928 24.2581 19.7189C24.3376 19.7733 24.4255 19.7984 24.5134 19.7984C24.6598 19.7984 24.8063 19.7273 24.8942 19.5934C25.0365 19.3841 24.9779 19.0996 24.7687 18.9573C23.8731 18.3588 23.5425 16.4924 23.4881 15.7977L23.5885 13.8978C23.6094 13.471 23.961 13.132 24.3878 13.1194C24.7394 13.1278 25.116 13.3747 25.2248 13.8141L26.61 17.3419L24.4925 23.5606ZM40.1939 24.9499C40.1939 24.9499 40.2232 26.2598 40.2525 27.9714L34.3142 29.0887C32.9709 29.3398 31.5899 28.9967 30.527 28.1346L25.3378 23.933L27.3381 18.0617L33.3601 22.3051C33.4815 22.393 33.6363 22.4139 33.7786 22.3637C36.1472 21.5309 38.8297 20.8237 40.9346 20.3257C40.6082 21.238 40.1939 22.8282 40.1939 24.9499ZM14.7669 4.25179H15.1603C15.4909 4.25179 15.7964 4.40244 15.9973 4.67027C16.1981 4.93391 16.2609 5.27288 16.1688 5.59093L15.6959 7.2272C15.3737 8.34455 14.474 9.17733 13.3817 9.4619C13.4696 9.24429 13.5491 9.0183 13.6077 8.78814L14.7669 4.25179ZM1.42986 7.2272L0.956987 5.59093C0.864921 5.27288 0.927693 4.9381 1.12438 4.67027C1.32525 4.40663 1.63074 4.25179 1.96135 4.25179H2.35472L3.51391 8.78814C3.5725 9.02249 3.65202 9.24429 3.7399 9.4619C2.65184 9.17733 1.74791 8.34455 1.42986 7.2272ZM7.60248 12.1025C7.64433 11.8765 7.51042 11.6506 7.28862 11.5836C5.85323 11.1358 4.77773 10.0059 4.40947 8.56216L3.30467 4.25179H13.8211L12.7164 8.56216C12.3481 10.0059 11.2684 11.1358 9.83719 11.5836C9.61539 11.6506 9.48148 11.8765 9.52333 12.1025L10.5068 17.4884H6.62324L7.60248 12.1025ZM6.48096 22.5227C6.43911 22.5227 6.40144 22.5353 6.35959 22.5479H4.79028V18.4049H6.07084H11.0592H12.3397V22.5479H10.7704C10.7327 22.5353 10.6909 22.5227 10.649 22.5227C10.6072 22.5227 10.5695 22.5353 10.5277 22.5479H6.6065C6.56047 22.5353 6.52281 22.5227 6.48096 22.5227ZM15.1603 35.2404C10.6281 35.2404 6.9371 31.5536 6.9371 27.0173V23.4643H10.1803V27.0173C10.1803 29.7625 12.415 31.993 15.1603 31.993H40.2944C40.3027 33.9431 40.2776 34.8387 40.2567 35.2363H15.1603V35.2404ZM20.2616 65.798C14.5828 65.798 9.96273 61.178 9.96273 55.495C9.96273 49.8162 14.5828 45.1961 20.2616 45.1961H36.0761L34.6825 48.4394H20.2616C16.3697 48.4394 13.206 51.6031 13.206 55.495C13.206 59.3869 16.3697 62.5506 20.2616 62.5506H23.5299C23.2203 63.1281 23.0696 63.7935 23.1408 64.4756C23.191 64.9527 23.35 65.3963 23.576 65.7939H20.2616V65.798ZM25.2666 61.0022C24.8816 61.1529 24.5385 61.3705 24.2456 61.6341H20.2616C16.8761 61.6341 14.1224 58.8805 14.1224 55.495C14.1224 52.1095 16.8761 49.3559 20.2616 49.3559H34.2891L30.0876 59.14L25.2666 61.0022ZM29.1334 62.9565C29.0623 63.1616 28.9116 63.329 28.7191 63.4211C28.5183 63.5131 28.3006 63.5257 28.0956 63.4545C27.8905 63.3834 27.7231 63.2369 27.6311 63.0402L26.8318 61.3872L28.3592 60.7972L29.1 62.333C29.192 62.5297 29.2046 62.7515 29.1334 62.9565ZM40.4994 66.6518C40.1521 67.8151 38.9803 68.5558 37.7876 68.3675L26.1036 66.5471C25.6182 66.4718 25.1913 66.25 24.844 65.9361L24.8398 65.932C24.4088 65.5386 24.1158 64.9987 24.053 64.3878C23.9401 63.2955 24.5761 62.2577 25.6014 61.8643L25.9697 61.722L26.7983 63.442C27.0954 64.0613 27.719 64.4254 28.3634 64.4254C28.6145 64.4254 28.8698 64.371 29.1125 64.2538C29.531 64.053 29.8448 63.7015 29.9955 63.262C30.1503 62.8226 30.121 62.3539 29.9202 61.9355L29.2129 60.4666L30.3679 60.0188C31.3472 60.6884 35.5237 63.216 41.7591 62.4125L40.4994 66.6518ZM42.0855 61.4333C36.189 62.3372 32.0837 60.0355 31.004 59.3367L34.7746 50.5569C36.0635 51.1805 40.2441 52.9967 45.5714 53.2854L42.0855 61.4333ZM35.1345 49.7116L35.3437 49.2261C35.419 49.1508 35.4651 49.042 35.4734 48.9248L37.1264 45.0748C37.2185 44.9911 37.2813 44.8739 37.2813 44.7358C37.2813 44.7316 37.2771 44.7274 37.2771 44.7233L40.9556 36.1569H42.8513L40.3111 46.1712C40.2483 46.4181 40.399 46.665 40.6417 46.7278C40.6794 46.7362 40.717 46.7403 40.7547 46.7403C40.9598 46.7403 41.1481 46.6022 41.1983 46.393L43.7971 36.1527H47.237V46.28C47.237 46.5353 47.442 46.7403 47.6973 46.7403C47.9526 46.7403 48.1577 46.5353 48.1577 46.28V36.1527H51.6478L54.8618 45.3342C54.9287 45.5226 55.1045 45.6397 55.2928 45.6397C55.343 45.6397 55.3932 45.6314 55.4434 45.6146C55.682 45.5309 55.8075 45.2715 55.7238 45.0287L52.6145 36.1485H55.1338L60.9423 44.8069C60.9758 44.8572 61.0176 44.899 61.0678 44.9325L62.6623 46.0038C51.3591 56.8844 37.4571 50.8415 35.1345 49.7116ZM53.7486 53.8127C53.2673 53.4988 52.853 53.118 52.4638 52.6995C56.1046 51.8458 59.9003 50.0003 63.449 46.5395L69.2868 50.4607C69.2241 51.6408 68.6131 57.261 62.9678 59.8096L53.7486 53.8127ZM63.5787 62.6385L65.6084 62.5213C65.8218 62.5088 66.0352 62.5799 66.1984 62.7264C66.3617 62.8687 66.4579 63.0695 66.4705 63.2872C66.483 63.5048 66.4119 63.714 66.2654 63.8772C66.1189 64.0404 65.9223 64.1367 65.7005 64.1492L63.7043 64.2664L63.5787 62.6385ZM70.1531 51.0758L73.932 53.8002C75.0368 54.5953 75.3381 56.1269 74.6225 57.2861L68.6382 66.9614C68.0188 67.9658 66.7969 68.4303 65.6628 68.083C64.6333 67.7691 63.9135 66.8736 63.8256 65.798L63.7754 65.1829L65.7507 65.0657C66.2152 65.0406 66.6379 64.8355 66.9475 64.4882C67.2572 64.1409 67.412 63.6973 67.3828 63.2327C67.3283 62.2786 66.5123 61.5672 65.5498 61.6007L63.5034 61.7178L63.4155 60.6214C68.7972 58.1649 69.9188 53.0929 70.1531 51.0758ZM70.8562 48.4436H67.9268L63.0975 45.2003H70.8562C73.6014 45.2003 75.8361 42.9656 75.8361 40.2246C75.8361 37.4793 73.6014 35.2446 70.8562 35.2446H60.6075C60.6201 35.1693 60.6326 35.0898 60.6494 35.0019C60.6912 34.9935 60.7373 34.9977 60.7833 34.9893C62.0555 34.7173 63.1435 33.9055 63.7378 32.8049C63.9261 32.537 64.0474 32.2692 64.1437 32.0014H70.8603C75.3925 32.0014 79.0835 35.6924 79.0835 40.2246C79.0793 44.7526 75.3925 48.4436 70.8562 48.4436Z" fill="#1E1E1E"/>
<path d="M50.789 13.0199C50.789 12.7646 50.584 12.5596 50.3287 12.5596H45.7338C45.4785 12.5596 45.2734 12.7646 45.2734 13.0199C45.2734 14.539 46.508 15.7777 48.0312 15.7777C49.5545 15.7777 50.789 14.539 50.789 13.0199ZM46.2527 13.4802H49.814C49.6089 14.2753 48.8891 14.8612 48.0312 14.8612C47.1775 14.8612 46.4577 14.2712 46.2527 13.4802Z" fill="#1E1E1E"/>
</svg>
