<svg width="80" height="73" viewBox="0 0 80 73" fill="none" xmlns="http://www.w3.org/2000/svg">
<path d="M29.9764 54.5083C29.6952 54.2782 29.4345 54.0584 29.1942 53.859C27.0672 52.0643 24.792 50.3004 22.3787 49.9834C21.6322 50.2646 20.8397 50.4742 20.0217 50.6174C18.2577 51.1849 18.0634 53.3323 18.043 53.6442C18.2321 54.2833 18.3344 54.9531 18.3344 55.6536V65.8538C19.0809 65.91 21.0442 65.7566 24.5466 63.5888C22.031 61.8964 20.3386 60.1887 20.2364 60.0762C20.0216 59.8564 20.0217 59.4985 20.2466 59.2837C20.4716 59.069 20.8244 59.0741 21.0391 59.294C21.08 59.3349 24.9607 63.2667 29.6646 65.0306C31.4132 65.6851 32.7067 65.2965 34.1434 63.6808C34.9615 62.7554 35.2989 61.5181 35.0382 60.3728C34.5678 58.2918 31.9142 56.1035 29.9764 54.5083Z" fill="#FC7941"/>
<path d="M63.8495 26.0811C63.8495 25.7028 63.5836 25.4932 63.1234 25.4932H62.0293V26.664H63.1234C63.5836 26.6589 63.8495 26.4595 63.8495 26.0811Z" fill="white"/>
<path d="M63.3228 27.6348H62.0293V28.8619H63.3228C63.8035 28.8619 64.1051 28.6471 64.1051 28.2483C64.1051 27.8495 63.8035 27.6348 63.3228 27.6348Z" fill="white"/>
<path d="M49.6204 8.3291H19.5055L14.7607 15.3338L19.5055 22.3384H49.6204V8.3291ZM23.7032 15.8962H20.2724L21.2081 17.2766C21.3819 17.5323 21.3154 17.88 21.0598 18.0538C20.9627 18.1203 20.8553 18.151 20.7479 18.151C20.569 18.151 20.39 18.064 20.2827 17.9055L18.759 15.6508C18.6312 15.4616 18.6312 15.211 18.759 15.0219L20.2827 12.7671C20.4565 12.5114 20.8042 12.445 21.0598 12.6188C21.3154 12.7927 21.3819 13.1403 21.2081 13.396L20.2724 14.7765H23.7032C24.0151 14.7765 24.2656 15.027 24.2656 15.3389C24.2605 15.6456 24.0099 15.8962 23.7032 15.8962ZM33.0035 18.0589L32.62 17.0057H30.5084L30.13 18.0589H28.8723L30.9839 12.6137H32.2468L34.3584 18.0589H33.0035Z" fill="white"/>
<path d="M55.1377 20.1758V34.1851H74.0349L78.7746 27.1804L74.0349 20.1758H55.1377ZM63.3797 29.9005H60.813V24.4553H63.1803C64.3869 24.4553 65.072 25.0842 65.072 26.0761C65.072 26.4646 64.8113 26.9043 64.438 27.0424C64.9595 27.2111 65.3277 27.7173 65.3277 28.2439C65.3226 29.2614 64.6017 29.9005 63.3797 29.9005ZM75.2006 27.4923L73.677 29.7471C73.5696 29.9056 73.3907 29.9925 73.2117 29.9925C73.1044 29.9925 72.9919 29.9618 72.8998 29.8954C72.6442 29.7215 72.5777 29.3739 72.7516 29.1182L73.6873 27.7377H70.2565C69.9446 27.7377 69.6941 27.4872 69.6941 27.1753C69.6941 26.8634 69.9446 26.6129 70.2565 26.6129H73.6873L72.7516 25.2324C72.5777 24.9768 72.6442 24.6291 72.8998 24.4553C73.1555 24.2814 73.5032 24.3479 73.677 24.6035L75.2006 26.8583C75.3285 27.0526 75.3285 27.3031 75.2006 27.4923Z" fill="white"/>
<path d="M30.8867 15.9467H32.2468L31.5667 14.0498L30.8867 15.9467Z" fill="white"/>
<path d="M27.523 41.9866C27.6611 42.2116 28.111 42.5132 28.5814 42.4723C28.8677 41.6952 29.0518 40.8822 29.1336 40.0488C28.6734 40.192 28.2542 40.4476 27.9116 40.7851C27.5742 41.1225 27.3236 41.6594 27.523 41.9866Z" fill="white"/>
<path d="M54.0122 65.9257V34.7422V19.6132V1.125H50.7451V7.77175V22.9059V63.5175C51.6705 64.3458 52.4477 65.4246 52.78 66.8409C53.1073 66.575 53.5316 66.2529 54.0122 65.9257Z" fill="#FFDA6E"/>
<path d="M17.215 56.9116V55.6538C17.215 52.3253 14.5052 49.6104 11.1716 49.6104H7.1733C3.84481 49.6104 1.12988 52.3202 1.12988 55.6538V56.9218C1.37019 57.0649 2.86315 57.7756 9.02417 57.7756C15.1136 57.7756 16.8622 57.0905 17.215 56.9116Z" fill="#FEC270"/>
<path d="M13.846 49.0066C18.013 45.6986 17.4966 42.4621 17.2819 41.6492C15.1191 40.463 14.6436 38.7144 14.93 37.4464C15.2419 36.0762 16.4434 35.1354 17.9159 35.1098C24.2456 34.9973 25.5903 30.3651 25.8767 28.3506C24.6854 28.8312 22.4817 29.5214 20.1502 29.1686C20.1451 29.1686 20.14 29.1635 20.14 29.1635C18.8976 28.9744 17.6296 28.9846 16.3718 29.1942C10.3079 30.2066 6.14091 35.5904 7.07657 41.1993C7.52651 43.904 9.09105 46.2661 11.4788 47.8409C12.2201 48.3215 13.0177 48.705 13.846 49.0066Z" fill="#C0735F"/>
<path d="M17.9364 36.2303C16.9752 36.2457 16.2287 36.8234 16.0293 37.6977C15.8248 38.5925 16.2338 39.8707 18.0029 40.7654C18.1256 40.8268 18.2227 40.9342 18.2738 41.062C18.3403 41.2409 19.8128 45.2801 15.1396 49.3909C16.6275 49.7334 18.1972 49.7897 19.7668 49.5289C23.535 48.9 26.5721 46.5788 28.1059 43.5622C27.4055 43.4293 26.8175 42.9844 26.5669 42.5703C26.0403 41.7011 26.4647 40.6478 27.1191 39.9883C27.6764 39.4259 28.4025 39.0526 29.1796 38.8839C29.1694 38.434 29.1387 37.9789 29.062 37.5188C28.699 35.3304 27.5691 33.3364 25.8767 31.8281C24.7161 33.9909 22.4357 36.1485 17.9364 36.2303ZM26.6385 36.4962C26.7459 37.1302 26.3931 37.7182 25.8511 37.8102C25.3092 37.9022 24.7877 37.4574 24.6803 36.8234C24.5729 36.1894 24.9257 35.6014 25.4677 35.5094C26.0096 35.4174 26.5311 35.8622 26.6385 36.4962Z" fill="#FFD2D7"/>
<path d="M17.2865 51.942C17.4297 51.5688 17.6291 51.1751 17.9052 50.812C17.8592 50.812 17.808 50.8172 17.762 50.8172C17.2916 50.8172 16.8264 50.7814 16.3662 50.7354C16.7139 51.1035 17.0207 51.5074 17.2865 51.942Z" fill="#FFDA6E"/>
<path d="M4.76562 58.752V60.0455H5.54789V58.8031C5.27179 58.7929 5.01104 58.7724 4.76562 58.752Z" fill="#FFDA6E"/>
<path d="M3.92188 61.8816V65.5526C3.92188 65.9463 4.24398 66.2633 4.63256 66.2633H13.7181C14.1118 66.2633 14.4289 65.9412 14.4289 65.5526V61.8816C14.4289 61.4879 14.1067 61.1709 13.7181 61.1709H11.9491H6.10506H4.63256C4.23887 61.1709 3.92188 61.4879 3.92188 61.8816Z" fill="#FEC270"/>
<path d="M9.02915 58.9003C8.15485 58.9003 7.37257 58.8849 6.66699 58.8594V60.0456H11.3862V58.8594C10.6755 58.8849 9.89834 58.9003 9.02915 58.9003Z" fill="#FFDA6E"/>
<path d="M16.7042 69.4739C16.0651 69.9341 15.293 70.2102 14.4494 70.2102H6.08984V71.5395H24.7774V67.4492C21.8426 69.2234 18.8823 69.4944 17.4149 69.4944C17.103 69.4944 16.8678 69.4841 16.7042 69.4739Z" fill="#FC7941"/>
<path d="M18.2688 66.9788C18.1819 67.4798 17.9978 67.9451 17.7422 68.3643C19.2761 68.3183 22.1137 67.9451 24.7724 66.13V64.7598C21.6893 66.6055 19.6953 66.9941 18.6011 66.9941C18.4784 66.9941 18.3711 66.9839 18.2688 66.9788Z" fill="#FFDA6E"/>
<path d="M12.5117 58.808V60.0453H13.294V58.7568C13.0434 58.7773 12.7878 58.7926 12.5117 58.808Z" fill="#FFDA6E"/>
<path d="M16.1771 68.4618C16.1822 68.4618 16.1822 68.4566 16.1822 68.4566C16.806 67.9505 17.2099 67.1835 17.2099 66.3195V58.1133C16.6782 58.2922 15.8038 58.4967 14.408 58.6501V60.184C15.0778 60.4601 15.5482 61.1145 15.5482 61.8815V65.5525C15.5482 66.5649 14.725 67.3881 13.7127 67.3881H4.62709C3.61474 67.3881 2.79157 66.5649 2.79157 65.5525V61.8815C2.79157 61.2321 3.12902 60.6697 3.6352 60.3425V58.645C2.41322 58.5019 1.63095 58.3178 1.12988 58.1388V66.3195C1.12988 67.8431 2.37232 69.0855 3.89596 69.0855H14.4387C15.1034 69.0855 15.7016 68.8452 16.1771 68.4618Z" fill="#FFDA6E"/>
<path d="M52.1774 68.4509C51.9729 68.3742 51.8349 68.1851 51.8195 67.9652C51.5997 64.7748 48.7671 63.246 46.9623 62.5967C48.7109 65.6082 48.2303 68.86 48.2047 69.0185C48.1638 69.2639 47.9695 69.4531 47.7241 69.4837C47.4838 69.5144 47.2435 69.3866 47.1412 69.1616C46.0164 66.6716 43.7361 66.3086 42.3096 66.2882C44.1042 68.0368 44.5337 70.4501 44.6359 71.534H56.6001C56.8966 68.272 58.1135 66.1706 58.9673 65.0662C55.9303 65.3321 52.8012 68.2924 52.7654 68.3282C52.612 68.4867 52.382 68.5327 52.1774 68.4509Z" fill="#93B598"/>
<path d="M30.9837 12.6133L28.8721 18.0585H30.1298L30.5082 17.0052H32.6198L32.9982 18.0585H34.3531L32.2415 12.6133H30.9837ZM30.8865 15.9469L31.5665 14.05L32.2466 15.9469H30.8865Z" fill="#1E1E1E"/>
<path d="M64.4327 27.0471C64.8059 26.909 65.0667 26.4642 65.0667 26.0807C65.0667 25.0837 64.3867 24.46 63.1749 24.46H60.8076V29.9052H63.3743C64.5963 29.9052 65.3172 29.2661 65.3172 28.2537C65.3223 27.722 64.9542 27.2158 64.4327 27.0471ZM62.0296 25.4928H63.1238C63.5839 25.4928 63.8498 25.7024 63.8498 26.0807C63.8498 26.4591 63.5839 26.6636 63.1238 26.6636H62.0296V25.4928ZM63.3232 28.8673H62.0296V27.6402H63.3232C63.8038 27.6402 64.1054 27.8549 64.1054 28.2537C64.1054 28.6525 63.8038 28.8673 63.3232 28.8673Z" fill="#1E1E1E"/>
<path d="M74.7911 19.296C74.6888 19.1426 74.515 19.0506 74.3258 19.0506H55.132V0.562417C55.132 0.250531 54.8815 0 54.5696 0H50.1776C49.8657 0 49.6152 0.250531 49.6152 0.562417V7.20917H19.2038C19.0197 7.20917 18.8459 7.3012 18.7385 7.45458L13.6154 15.0217C13.4876 15.2108 13.4876 15.4614 13.6154 15.6505L18.7385 23.2176C18.8408 23.371 19.0146 23.463 19.2038 23.463H49.6152V62.6686C47.7132 61.4517 45.7039 61.0785 45.663 61.0683C45.4329 61.0223 45.1977 61.1399 45.0801 61.3444C44.9625 61.5489 44.9881 61.8097 45.1466 61.9886C46.6088 63.6656 47.0281 65.6954 47.1253 67.1066C44.7171 64.4377 40.7904 65.3324 40.7444 65.3427C40.5245 65.3938 40.3558 65.5727 40.32 65.7977C40.2842 66.0227 40.3865 66.2425 40.5808 66.3652C43.4849 68.1599 43.5309 72.061 43.5309 72.1019C43.5309 72.4087 43.7814 72.6592 44.0933 72.6592H57.1107C57.4073 72.6592 57.6527 72.4291 57.668 72.1326C57.9492 67.2293 60.521 65.0103 60.5466 64.9899C60.7153 64.8518 60.7869 64.6217 60.7255 64.4121C60.6693 64.2025 60.4954 64.044 60.2807 64.0082C58.4861 63.7014 56.6301 64.3917 55.1218 65.2353V35.3096H74.3156C74.4996 35.3096 74.6735 35.2175 74.7808 35.0642L79.9039 27.4971C80.0318 27.3079 80.0318 27.0574 79.9039 26.8682L74.7911 19.296ZM50.7452 22.9057V7.77158V1.12483H54.0123V19.613V34.7472V65.9306C53.5317 66.2579 53.1073 66.5749 52.7801 66.8407C52.4478 65.4245 51.6655 64.3456 50.7452 63.5173V22.9057ZM19.5106 22.3433L14.7658 15.3387L19.5106 8.334H49.6255V22.3433H19.5106ZM58.9667 65.0717C58.1077 66.176 56.8909 68.2774 56.5994 71.5395H44.6302C44.5279 70.4555 44.1035 68.0423 42.3038 66.2936C43.7354 66.3141 46.0106 66.672 47.1355 69.1671C47.2377 69.3921 47.478 69.525 47.7183 69.4892C47.9638 69.4585 48.1581 69.2642 48.199 69.0239C48.2245 68.8654 48.7051 65.6136 46.9565 62.6021C48.7614 63.2566 51.5939 64.7802 51.8138 67.9707C51.8291 68.1854 51.9671 68.3746 52.1717 68.4564C52.3762 68.5382 52.6063 68.4922 52.7596 68.3388C52.8005 68.303 55.9347 65.3375 58.9667 65.0717ZM74.0292 34.1847H55.132V20.1754H74.0292L78.7689 27.1801L74.0292 34.1847Z" fill="#1E1E1E"/>
<path d="M24.6853 36.8231C24.7926 37.4571 25.3142 37.902 25.8561 37.8099C26.3981 37.7179 26.7458 37.1299 26.6435 36.4959C26.5361 35.8619 26.0146 35.4171 25.4727 35.5091C24.9307 35.5961 24.5779 36.184 24.6853 36.8231Z" fill="#1E1E1E"/>
<path d="M30.6875 53.644C30.4114 53.419 30.1507 53.2043 29.9155 52.9998C28.0851 51.4557 26.1371 49.932 24.0101 49.2265C26.5154 47.8664 28.4378 45.7395 29.4655 43.2546C29.486 43.2188 29.5013 43.183 29.5116 43.1473C30.2376 41.3424 30.4983 39.3586 30.1609 37.3441C29.7365 34.7928 28.3816 32.4818 26.3569 30.7741C27.0472 29.005 27.0727 27.4763 27.0727 27.4405C27.0727 27.2411 26.9705 27.057 26.7966 26.9599C26.6279 26.8576 26.4183 26.8576 26.2393 26.9496C26.2087 26.965 23.3199 28.5091 20.3237 28.0642C20.3186 28.0642 20.3135 28.0591 20.3084 28.0591C18.9432 27.8495 17.5525 27.8597 16.172 28.0898C9.49973 29.2044 4.91859 35.166 5.95139 41.3833C6.432 44.2516 8.03234 46.7518 10.461 48.4953H7.16315C3.21601 48.4953 0 51.7062 0 55.6585V66.3239C0 68.4662 1.7435 70.2148 3.89091 70.2148H4.95438V72.1066C4.95438 72.4185 5.20491 72.669 5.5168 72.669H25.3241C25.636 72.669 25.8865 72.4185 25.8865 72.1066V64.4424C26.9295 65.056 28.0646 65.6337 29.2661 66.0836C29.9666 66.3444 30.5955 66.4569 31.1681 66.4569C32.9014 66.4569 34.0927 65.4241 34.9772 64.422C36.0356 63.2255 36.4651 61.6201 36.1276 60.122C35.5806 57.6678 32.7531 55.3415 30.6875 53.644ZM28.581 42.4672C28.1106 42.5081 27.6607 42.2065 27.5226 41.9815C27.3232 41.6543 27.5738 41.1174 27.9112 40.78C28.2538 40.4374 28.673 40.1869 29.1332 40.0437C29.0514 40.8771 28.8673 41.6901 28.581 42.4672ZM29.0616 37.5231C29.1383 37.9781 29.169 38.4332 29.1792 38.8882C28.4021 39.0518 27.6811 39.4302 27.1187 39.9926C26.4592 40.6522 26.0348 41.7054 26.5665 42.5746C26.8222 42.9887 27.4051 43.4336 28.1055 43.5665C26.5717 46.578 23.5346 48.9044 19.7664 49.5332C18.1968 49.794 16.6271 49.7378 15.1393 49.3952C19.8124 45.2844 18.3399 41.2453 18.2734 41.0663C18.2223 40.9385 18.1252 40.8311 18.0025 40.7698C16.2334 39.875 15.8244 38.6019 16.0289 37.702C16.2283 36.8277 16.9799 36.2551 17.936 36.2346C22.4353 36.1528 24.7157 33.9952 25.8763 31.8375C27.5687 33.3458 28.6935 35.3399 29.0616 37.5231ZM17.9053 50.8115C17.6292 51.1745 17.4298 51.5682 17.2867 51.9414C17.0208 51.5068 16.714 51.1029 16.3612 50.7297C16.8214 50.7808 17.2866 50.8115 17.757 50.8115C17.8082 50.8166 17.8593 50.8115 17.9053 50.8115ZM7.07623 41.1941C6.14057 35.5904 10.3127 30.2014 16.3715 29.1891C17.6292 28.9795 18.8972 28.9692 20.1396 29.1584C20.1448 29.1584 20.1499 29.1635 20.1499 29.1635C22.4814 29.5163 24.685 28.8261 25.8763 28.3455C25.59 30.3599 24.2453 34.9922 17.9155 35.1047C16.443 35.1302 15.2466 36.071 14.9296 37.4413C14.6382 38.7093 15.1137 40.463 17.2815 41.6441C17.4963 42.457 18.0127 45.6935 13.8457 49.0015C13.0174 48.705 12.2198 48.3215 11.4784 47.8307C9.09071 46.261 7.52616 43.904 7.07623 41.1941ZM1.13507 55.6534C1.13507 52.3249 3.84488 49.6099 7.17848 49.6099H11.1768C14.5053 49.6099 17.2202 52.3198 17.2202 55.6534V56.9111C16.8674 57.0901 15.1239 57.7803 9.03448 57.7803C2.87345 57.7803 1.38047 57.0696 1.14016 56.9265V55.6534H1.13507ZM6.10478 61.1702H11.9488H13.7179C14.1115 61.1702 14.4286 61.4923 14.4286 61.8808V65.5519C14.4286 65.9456 14.1064 66.2626 13.7179 66.2626H4.63228C4.23859 66.2626 3.92159 65.9405 3.92159 65.5519V61.8808C3.92159 61.4872 4.2437 61.1702 4.63228 61.1702H6.10478ZM4.76522 60.0453V58.7518C5.01064 58.7722 5.27138 58.7876 5.54748 58.8029V60.0453H4.76522ZM6.66719 60.0453V58.8591C7.37277 58.8847 8.16017 58.9 9.02936 58.9C9.89855 58.9 10.6757 58.8847 11.3864 58.8591V60.0453H6.66719ZM12.5112 60.0453V58.808C12.7873 58.7927 13.043 58.7722 13.2935 58.7569V60.0453H12.5112ZM3.90112 69.0849C2.37748 69.0849 1.13507 67.8425 1.13507 66.3188V58.1382C1.63613 58.3121 2.42352 58.4961 3.64038 58.6444V60.3419C3.13421 60.6691 2.79676 61.2366 2.79676 61.8808V65.5519C2.79676 66.5643 3.61993 67.3874 4.63228 67.3874H13.7179C14.7302 67.3874 15.5534 66.5643 15.5534 65.5519V61.8808C15.5534 61.1139 15.083 60.4595 14.4132 60.1834V58.6495C15.809 58.4961 16.6833 58.2916 17.2151 58.1127V66.3188C17.2151 67.1829 16.8061 67.9447 16.1874 68.456C16.1823 68.456 16.1823 68.4611 16.1823 68.4611C15.7068 68.8446 15.1086 69.0849 14.4541 69.0849H3.90112ZM24.7719 71.5391H6.08433V70.2097H14.4439C15.2875 70.2097 16.0647 69.9336 16.6987 69.4735C16.8623 69.4837 17.0975 69.4939 17.4043 69.4939C18.8716 69.4939 21.832 69.2178 24.7668 67.4488V71.5391H24.7719ZM24.7719 66.1245C22.1081 67.9396 19.2756 68.3129 17.7417 68.3589C18.0025 67.9396 18.1814 67.4743 18.2683 66.9733C18.3706 66.9835 18.4728 66.9886 18.6007 66.9886C19.6948 66.9886 21.6889 66.6 24.7719 64.7543V66.1245ZM34.1438 63.6755C32.7122 65.2911 31.4187 65.6797 29.665 65.0253C24.956 63.2613 21.0753 59.3295 21.0395 59.2886C20.8248 59.0688 20.472 59.0637 20.247 59.2784C20.0272 59.4931 20.022 59.851 20.2368 60.0709C20.3442 60.1783 22.0314 61.886 24.547 63.5834C21.0446 65.7513 19.0762 65.9098 18.3348 65.8485V55.6482C18.3348 54.9529 18.2274 54.278 18.0434 53.6389C18.0638 53.327 18.253 51.1796 20.0221 50.6121C20.8401 50.4689 21.6275 50.2593 22.3791 49.9781C24.7924 50.2899 27.0676 52.059 29.1946 53.8536C29.4349 54.0581 29.7007 54.2729 29.9768 54.503C31.9146 56.0982 34.5682 58.2814 35.0386 60.3623C35.2993 61.5127 34.9619 62.75 34.1438 63.6755Z" fill="#1E1E1E"/>
<path d="M23.7031 14.776H20.2724L21.208 13.3955C21.3819 13.1399 21.3154 12.7922 21.0598 12.6184C20.8041 12.4445 20.4564 12.511 20.2826 12.7666L18.759 15.0214C18.6311 15.2106 18.6311 15.4611 18.759 15.6503L20.2826 17.9051C20.39 18.0636 20.5689 18.1505 20.7479 18.1505C20.8552 18.1505 20.9677 18.1198 21.0598 18.0534C21.3154 17.8795 21.3819 17.5319 21.208 17.2762L20.2724 15.8957H23.7031C24.015 15.8957 24.2655 15.6452 24.2655 15.3333C24.2604 15.0265 24.0099 14.776 23.7031 14.776Z" fill="#1E1E1E"/>
<path d="M72.8943 24.4599C72.6386 24.6337 72.5721 24.9814 72.746 25.2371L73.6816 26.6175H70.2509C69.939 26.6175 69.6885 26.8681 69.6885 27.1799C69.6885 27.4918 69.939 27.7424 70.2509 27.7424H73.6816L72.746 29.1228C72.5721 29.3785 72.6386 29.7262 72.8943 29.9C72.9914 29.9665 73.0988 29.9971 73.2061 29.9971C73.3851 29.9971 73.564 29.9102 73.6714 29.7517L75.1951 27.4969C75.3229 27.3078 75.3229 27.0572 75.1951 26.8681L73.6714 24.6133C73.4976 24.3525 73.1499 24.2861 72.8943 24.4599Z" fill="#1E1E1E"/>
<path d="M36.716 29.0312C35.4327 29.0312 34.3896 30.0743 34.3896 31.3576C34.3896 31.6695 34.6402 31.92 34.9521 31.92C35.264 31.92 35.5145 31.6695 35.5145 31.3576C35.5145 30.6929 36.0565 30.151 36.7211 30.151C37.3858 30.151 37.9277 30.6929 37.9277 31.3576C37.9277 31.7411 37.7437 32.1092 37.4318 32.3342C36.624 32.9222 36.1638 33.7658 36.1638 34.6503C36.1638 34.9622 36.4143 35.2127 36.7262 35.2127C37.0381 35.2127 37.2886 34.9622 37.2886 34.6503C37.2886 33.9345 37.7948 33.459 38.0965 33.2392C38.6998 32.8046 39.0577 32.099 39.0577 31.3576C39.0424 30.0743 37.9993 29.0312 36.716 29.0312Z" fill="#1E1E1E"/>
<path d="M36.7161 36.1787C36.2712 36.1787 35.9082 36.5417 35.9082 36.9865C35.9082 37.4314 36.2712 37.7944 36.7161 37.7944C37.1609 37.7944 37.5239 37.4314 37.5239 36.9865C37.5239 36.5417 37.1609 36.1787 36.7161 36.1787Z" fill="#1E1E1E"/>
<path d="M40.5095 37.774C40.3919 38.2035 40.6424 38.6483 41.0719 38.7659C41.5014 38.8835 41.9462 38.633 42.0638 38.2035C42.1814 37.774 41.9309 37.3292 41.5014 37.2116C41.0719 37.094 40.6271 37.3445 40.5095 37.774Z" fill="#1E1E1E"/>
<path d="M41.7565 36.2806C41.8077 36.296 41.8537 36.3011 41.9048 36.3011C42.1502 36.3011 42.3752 36.1375 42.4468 35.887L43.7966 31.0093C43.8784 30.7127 43.7045 30.4008 43.4029 30.319C43.1063 30.2372 42.7944 30.411 42.7126 30.7127L41.3628 35.5904C41.2861 35.8921 41.46 36.1988 41.7565 36.2806Z" fill="#1E1E1E"/>
</svg>
