<svg width="80" height="76" viewBox="0 0 80 76" fill="none" xmlns="http://www.w3.org/2000/svg">
<path d="M20.7467 62.0332C19.872 62.0332 19.1582 62.747 19.1582 63.6217C19.1582 64.4964 19.872 65.2053 20.7467 65.2053C21.6214 65.2053 22.3353 64.4964 22.3353 63.6217C22.3353 62.747 21.6214 62.0332 20.7467 62.0332Z" fill="#FFFAF3"/>
<path d="M74.3697 55.5435C75.5762 49.6518 73.1934 41.9655 67.1258 39.3012C64.4363 38.1198 61.4854 37.9791 58.8211 38.9091C58.5798 38.9945 58.3435 39.085 58.1123 39.1805C58.3888 40.3116 59.5802 43.5541 64.195 44.5544C65.5774 44.851 66.5125 45.9821 66.5175 47.3646C66.5225 48.6515 65.6528 50.3406 63.2047 50.9589C62.6467 51.6526 60.1784 54.9755 62.144 57.2125C63.6722 58.9519 62.1993 60.7666 61.2291 61.9681L60.9023 62.3753C60.0779 63.436 59.6606 64.2302 59.9673 65.1552C60.7766 67.5481 63.8683 68.1513 66.1254 68.3976C67.4224 68.5384 70.6497 68.644 72.565 66.6432C73.7112 65.4468 73.4699 63.9286 73.2236 63.1243C72.6505 61.2492 73.2336 59.3842 73.8017 57.5845C74.0279 56.8707 74.239 56.197 74.3697 55.5435Z" fill="#C0735F"/>
<path d="M22.1641 68.5438L24.1749 71.8013L24.5519 70.9266C24.6424 70.7155 24.8636 70.5747 25.0898 70.5948L26.0449 70.6501L24.0995 67.4932C23.5465 67.9758 22.893 68.3377 22.1641 68.5438Z" fill="#FF857A"/>
<path d="M24.7986 63.6171C24.7986 61.3851 22.9838 59.5703 20.7518 59.5703C18.5198 59.5703 16.7051 61.3851 16.7051 63.6171C16.7051 65.8491 18.5198 67.6638 20.7518 67.6638C22.9838 67.6638 24.7986 65.8491 24.7986 63.6171ZM20.7468 66.3065C19.2638 66.3065 18.0573 65.1 18.0573 63.6171C18.0573 62.1341 19.2638 60.9276 20.7468 60.9276C22.2298 60.9276 23.4363 62.1341 23.4363 63.6171C23.4363 65.1 22.2298 66.3065 20.7468 66.3065Z" fill="#FFDA6E"/>
<path d="M72.0217 68.4535C70.4834 69.3534 68.6988 69.5695 67.3666 69.5695C66.8237 69.5695 66.3562 69.5343 66.0093 69.4991C63.4506 69.2227 59.9367 68.5088 58.9263 65.5177C58.4085 63.9795 59.2279 62.7428 60.0322 61.7073L60.369 61.285C60.8214 60.732 61.2035 60.2293 61.4398 59.7668C61.1633 59.7165 60.8918 59.6361 60.6204 59.5657C60.6003 59.5657 60.5751 59.5708 60.555 59.5657C56.1664 58.686 46.5547 60.4706 46.4592 60.4907C46.3134 60.5209 46.1626 60.4857 46.0369 60.4002L37.8278 54.6191L32.8008 62.2502L41.0702 68.2223C42.1963 69.0367 43.5285 69.469 44.9209 69.469H52.9592H57.4885C57.7952 69.469 58.0415 69.7153 58.0415 70.022C58.0415 70.3286 57.7952 70.5749 57.4885 70.5749H53.6479L54.5377 74.501H73.1075C72.7908 72.7516 72.4339 70.781 72.077 68.7501C72.0669 68.6446 72.0418 68.549 72.0217 68.4535Z" fill="#91C7DE"/>
<path d="M54.6584 48.1794L52.356 46.4551C52.2153 47.3348 52.1851 48.2246 52.2907 49.1043C53.2056 49.2702 54.1306 48.6368 54.6584 48.1794Z" fill="#FF857A"/>
<path d="M58.9773 57.8556C59.847 58.2377 60.7519 58.5142 61.6769 58.675C61.6417 58.4237 61.526 58.1824 61.3149 57.9411C58.4897 54.7137 62.3203 50.2899 62.4862 50.0989C62.5616 50.0134 62.6672 49.9531 62.7778 49.928C64.7283 49.4957 65.417 48.2791 65.4119 47.3692C65.4069 46.5046 64.8389 45.8209 63.9591 45.6299C59.098 44.5792 57.5597 41.186 57.1073 39.6729C55.2775 40.7034 53.8498 42.2567 53.0103 44.167C52.8494 44.529 52.7237 44.8959 52.6131 45.2679L55.8304 47.6759C55.9511 47.7664 56.0315 47.9071 56.0466 48.0579C56.0617 48.2087 56.0164 48.3646 55.9109 48.4802C55.8405 48.5606 54.3475 50.2346 52.5779 50.2346C52.5478 50.2346 52.5126 50.2296 52.4824 50.2296C53.2465 53.4469 55.564 56.3576 58.9773 57.8556ZM56.0064 45.2177C55.5137 45.0015 55.3227 44.353 55.574 43.7749C55.8304 43.1968 56.4337 42.9002 56.9263 43.1164C57.419 43.3325 57.61 43.976 57.3586 44.5591C57.1073 45.1423 56.499 45.4338 56.0064 45.2177Z" fill="#FFD2D7"/>
<path d="M44.9216 70.5648C43.2979 70.5648 41.7445 70.0621 40.4274 69.112L31.7307 62.8332L25.5625 58.324C24.6627 57.7408 24.346 56.5645 24.7984 55.5842L20.9879 51.7737L20.2439 52.5178C20.3294 53.3522 20.1032 54.0812 19.5854 54.5989C18.4392 55.7451 16.3078 55.4133 14.7343 53.8399C13.1608 52.2664 12.8291 50.1349 13.9752 48.9888C14.493 48.471 15.2269 48.2397 16.0564 48.3302L16.8004 47.5862L14.684 45.4699C14.5835 45.4849 14.488 45.5101 14.3874 45.5101C14.1009 45.5101 13.8093 45.4548 13.5278 45.3341L12.2861 44.8867V74.4959H53.4123L52.5225 70.5698H44.9216V70.5648ZM27.5432 71.5451C27.4376 71.721 27.2466 71.8316 27.0354 71.8115L25.4117 71.716L24.7682 73.209C24.6878 73.395 24.5068 73.5257 24.3007 73.5408C24.2857 73.5408 24.2756 73.5408 24.2605 73.5408C24.0695 73.5408 23.8935 73.4453 23.793 73.2794L20.993 68.735C20.9125 68.74 20.8321 68.7601 20.7517 68.7601C20.6662 68.7601 20.5908 68.74 20.5104 68.735L17.7103 73.2794C17.6098 73.4453 17.4338 73.5408 17.2428 73.5408C17.2277 73.5408 17.2176 73.5408 17.2026 73.5408C16.9965 73.5257 16.8205 73.4 16.7351 73.209L16.0916 71.716L14.4679 71.8115C14.2618 71.8266 14.0657 71.721 13.9601 71.5451C13.8546 71.3691 13.8546 71.1479 13.9652 70.972L16.6245 66.6588C15.9911 65.8042 15.609 64.7586 15.609 63.6174C15.609 60.7772 17.9214 58.4647 20.7567 58.4647C23.597 58.4647 25.9094 60.7772 25.9094 63.6174C25.9094 64.7586 25.5223 65.8042 24.8939 66.6588L27.5532 70.972C27.6487 71.1479 27.6487 71.3691 27.5432 71.5451Z" fill="#FFFAF3"/>
<path d="M18.806 29.604C18.4943 29.2923 18.0017 29.1817 17.4185 29.2923C16.755 29.4129 16.0813 29.795 15.5133 30.363C14.4174 31.4589 14.0705 32.967 14.7542 33.6557C14.7994 33.701 14.8296 33.7563 14.8598 33.8116C16.3729 34.4048 17.8458 35.0382 18.429 35.4454C19.0875 35.9079 19.4042 36.6217 19.2986 37.4009C19.1981 38.1549 18.7054 38.8638 18.0117 39.3262C18.2832 39.8038 18.3385 40.4121 18.0972 41.0505C17.8257 41.7694 17.2275 42.4078 16.4634 42.6189C16.6393 43.1418 16.6192 43.7249 16.3628 44.2628C16.2171 44.5644 16.0009 44.7956 15.7596 44.9967L17.9614 47.1986C18.1776 47.4147 18.1776 47.7616 17.9614 47.9778L16.6343 49.3049C16.5036 49.4306 16.3226 49.4909 16.1417 49.4557C15.5585 49.3451 15.0608 49.4557 14.7492 49.7674C14.0605 50.4561 14.4073 51.9642 15.5083 53.0601C16.6041 54.156 18.1123 54.5028 18.801 53.8192C19.1126 53.5075 19.2232 53.0148 19.1126 52.4267C19.0774 52.2457 19.1327 52.0647 19.2634 51.934L20.5906 50.6069C20.8067 50.3907 21.1536 50.3907 21.3698 50.6069L25.4819 54.719C25.693 54.5632 25.9293 54.4475 26.1806 54.3772C25.9343 53.6281 26.1304 52.7786 26.5677 52.1552C26.9649 51.5972 27.4977 51.2805 28.0457 51.2403C28.0507 50.4661 28.3423 49.7322 28.845 49.2295C28.4931 48.6866 28.3674 47.9979 28.5082 47.2287C28.674 46.354 29.1617 45.4693 29.8805 44.7454C31.454 43.1719 33.5804 42.8401 34.7316 43.9863C35.2494 44.5041 35.4756 45.233 35.3902 46.0675L36.1342 46.8115L41.2265 41.7191L34.1887 34.6762C34.1485 34.6461 34.1183 34.6159 34.0882 34.5757L30.152 30.6395L26.8543 27.3418L21.3698 32.8263C21.1536 33.0424 20.8067 33.0424 20.5906 32.8263L19.2634 31.4991C19.1327 31.3684 19.0774 31.1875 19.1126 31.0065C19.2283 30.4083 19.1177 29.9106 18.806 29.604Z" fill="#81B786"/>
<path d="M15.3727 43.775C15.6291 43.2371 15.4179 42.5987 14.885 42.3222L13.4875 41.8094C13.201 41.7039 13.0552 41.3872 13.1608 41.1006C13.2663 40.8141 13.583 40.6683 13.8696 40.7739L15.3274 41.3117C15.4682 41.3821 15.5939 41.4676 15.7145 41.5581H15.7195C16.3881 41.7189 16.8959 41.1056 17.0718 40.6482C17.1171 40.5225 17.3332 39.8891 16.8707 39.6428C15.9809 39.1702 14.9856 38.944 14.9755 38.944C14.6789 38.8787 14.4929 38.5821 14.5583 38.2855C14.6236 37.9889 14.9152 37.8029 15.2168 37.8682C15.257 37.8783 16.1871 38.0894 17.1321 38.5469C17.7002 38.2754 18.1375 37.7727 18.2079 37.2499C18.2582 36.8779 18.1225 36.5713 17.7957 36.345C16.8758 35.7016 12.8139 34.1884 10.8031 33.4746L7.28418 41.9049L13.9249 44.3028C14.4929 44.5391 15.1163 44.3079 15.3727 43.775Z" fill="#FFD2D7"/>
<path d="M28.5233 56.4028L27.2616 55.498C26.8041 55.2466 26.1405 55.4326 25.8439 55.9403C25.5473 56.4481 25.6982 57.0915 26.1908 57.4133L31.9116 61.6008L36.9386 53.9697C35.2244 52.7029 31.7004 50.1794 30.6498 49.7772C30.2828 49.6364 29.951 49.6917 29.6695 49.9381C29.2724 50.29 29.1014 50.9334 29.197 51.5568C30.1018 52.0846 30.8006 52.7381 30.8307 52.7683C31.0519 52.9794 31.062 53.3263 30.8509 53.5475C30.6397 53.7687 30.2929 53.7787 30.0717 53.5676C30.0616 53.5575 29.3226 52.8588 28.4278 52.3862C27.9653 52.1399 27.5582 52.6728 27.4777 52.7834C27.2012 53.1755 26.97 53.9346 27.4727 54.4021C27.5984 54.4423 27.724 54.4976 27.8447 54.5629L29.1618 55.503C29.4081 55.6789 29.4634 56.0258 29.2875 56.2721C29.1115 56.5235 28.7697 56.5788 28.5233 56.4028Z" fill="#FFD2D7"/>
<path d="M15.4531 70.6501L16.4083 70.5948C16.6345 70.5747 16.8557 70.7155 16.9462 70.9266L17.3232 71.8013L19.334 68.5438C18.6101 68.3327 17.9566 67.9758 17.3986 67.4932L15.4531 70.6501Z" fill="#FF857A"/>
<path d="M78.1599 17.866H72.3939C72.2381 17.866 72.0873 17.8007 71.9817 17.68L70.172 15.6592H66.6279V24.552H78.1599V17.866Z" fill="#FFDA6E"/>
<path d="M23.3859 18.5799C24.4919 18.5799 25.4219 17.8108 25.6682 16.7803H21.0986C21.35 17.8108 22.28 18.5799 23.3859 18.5799Z" fill="#FF857A"/>
<path d="M42.4033 41.3174C42.6195 41.5335 42.6195 41.8804 42.4033 42.0966L36.5317 47.9681C36.4262 48.0737 36.2905 48.129 36.1396 48.129C35.9888 48.129 35.8531 48.0687 35.7475 47.9681L34.4204 46.641C34.2897 46.5103 34.2344 46.3293 34.2696 46.1483C34.3802 45.5602 34.2696 45.0675 33.9579 44.7559C33.2692 44.0722 31.7611 44.414 30.6652 45.5149C29.6347 46.5455 29.2777 47.9279 29.8056 48.6619C30.2027 48.5663 30.62 48.5814 31.0372 48.7423C32.5252 49.3103 37.3914 52.9298 37.9946 53.3772C37.9946 53.3772 37.9946 53.3772 37.9996 53.3772L46.4853 59.3543C47.6716 59.1432 52.945 58.2383 57.2632 58.2132C52.5981 55.5187 50.2354 50.2554 51.4469 45.4094C51.452 45.3742 51.462 45.339 51.4771 45.2988C51.6179 44.7709 51.7838 44.2431 52.01 43.7253C53.2215 40.9705 55.5088 38.8893 58.4597 37.8638C61.3954 36.8433 64.6328 36.9941 67.5737 38.2861C74.4004 41.2822 76.7279 49.5265 75.456 55.76C75.3103 56.4688 75.079 57.2028 74.8578 57.9066C74.34 59.5504 73.8072 61.2495 74.2847 62.7928C74.8226 64.5473 74.4909 66.2263 73.3698 67.3976C73.2542 67.5182 73.1285 67.6188 73.0028 67.7244C73.0632 67.9958 73.1235 68.2622 73.1738 68.5438C73.5407 70.6501 73.9077 72.6911 74.2395 74.4857H78.9046V34.7822H35.8782L42.4033 41.3174Z" fill="#FFFAF3"/>
<path d="M22.4002 22.5262C28.4427 22.5262 33.3591 17.9817 33.3591 12.3917C33.3591 10.9891 33.0525 9.65697 32.4945 8.44043H12.3109C11.7529 9.65697 11.4463 10.9891 11.4463 12.3917C11.4413 17.9817 16.3577 22.5262 22.4002 22.5262ZM23.3855 19.6809C21.4802 19.6809 19.9319 18.1325 19.9319 16.2273C19.9319 15.9207 20.1782 15.6743 20.4849 15.6743H26.2861C26.5927 15.6743 26.8391 15.9207 26.8391 16.2273C26.8391 18.1325 25.2907 19.6809 23.3855 19.6809ZM26.7134 11.8186C27.2513 11.8186 27.6886 12.3314 27.6886 12.9648C27.6886 13.5982 27.2513 14.1109 26.7134 14.1109C26.1755 14.1109 25.7381 13.5982 25.7381 12.9648C25.7381 12.3364 26.1755 11.8186 26.7134 11.8186ZM20.7463 11.8186C21.2842 11.8186 21.7215 12.3314 21.7215 12.9648C21.7215 13.5982 21.2842 14.1109 20.7463 14.1109C20.2084 14.1109 19.7711 13.5982 19.7711 12.9648C19.7761 12.3364 20.2084 11.8186 20.7463 11.8186Z" fill="#FFD2D7"/>
<path d="M34.7715 33.6816H78.8988V30.791H31.876L34.7715 33.6816Z" fill="#677FB4"/>
<path d="M22.4001 2.25684C18.3483 2.25684 14.8093 4.30786 12.9141 7.33916H31.8861C29.9909 4.30786 26.4519 2.25684 22.4001 2.25684Z" fill="#C0735F"/>
<path d="M51.3562 3.31234H45.5902C45.4344 3.31234 45.2836 3.24698 45.178 3.12634L43.3683 1.10547H39.8242V9.99829H51.3562V3.31234Z" fill="#FFDA6E"/>
<path d="M6.25809 41.5032L9.8122 32.9874C9.13858 32.4495 8.06279 31.1475 9.16371 28.7597C9.29442 28.4832 9.62117 28.3625 9.89766 28.4882C10.1741 28.6139 10.2948 28.9457 10.1691 29.2221C9.15869 31.4039 10.521 32.178 10.7221 32.2736C11.0338 32.3841 12.0995 32.7612 13.3613 33.2337C13.1351 32.1026 13.6126 30.7001 14.7337 29.5791C15.4576 28.8552 16.3373 28.3675 17.217 28.2067C18.1722 28.0307 19.0117 28.2469 19.5898 28.825C20.1076 29.3378 20.3338 30.0717 20.2483 30.9062L20.9923 31.6502L26.4768 26.1657C26.693 25.9495 27.0398 25.9495 27.256 26.1657L30.7799 29.6897H33.8213C32.7355 25.854 29.2467 22.9735 28.2564 22.2195C27.3565 22.687 26.3863 23.0389 25.3658 23.2802L22.8624 26.8695C22.7568 27.0153 22.5909 27.1058 22.4099 27.1058C22.229 27.1058 22.0631 27.0153 21.9575 26.8695L19.439 23.2752C17.956 22.9233 16.5836 22.32 15.3771 21.5107C14.06 21.4303 3.65409 21.0582 1.47236 30.3683C-0.272022 37.7731 4.64944 40.7441 6.25809 41.5032Z" fill="#FF857A"/>
<path d="M20.9678 23.5469L22.4005 25.5929L23.8231 23.5519C23.3556 23.6022 22.8831 23.6374 22.4005 23.6374C21.9129 23.6323 21.4403 23.5971 20.9678 23.5469Z" fill="#FFD2D7"/>
<path d="M20.7461 60.9277C19.2631 60.9277 18.0566 62.1342 18.0566 63.6172C18.0566 65.1002 19.2631 66.3067 20.7461 66.3067C22.2291 66.3067 23.4356 65.1002 23.4356 63.6172C23.4356 62.1342 22.2291 60.9277 20.7461 60.9277ZM20.7461 65.2057C19.8714 65.2057 19.1576 64.4969 19.1576 63.6222C19.1576 62.7475 19.8714 62.0337 20.7461 62.0337C21.6208 62.0337 22.3346 62.7475 22.3346 63.6222C22.3346 64.4969 21.6208 65.2057 20.7461 65.2057Z" fill="#1E1E1E"/>
<path d="M24.8835 66.6589C25.517 65.8043 25.899 64.7587 25.899 63.6175C25.899 60.7773 23.5866 58.4648 20.7463 58.4648C17.906 58.4648 15.5986 60.7773 15.5986 63.6175C15.5986 64.7587 15.9857 65.8043 16.6141 66.6589L13.9548 70.9721C13.8492 71.148 13.8442 71.3692 13.9498 71.5452C14.0553 71.7211 14.2514 71.8317 14.4575 71.8116L16.0812 71.7161L16.7247 73.2091C16.8051 73.3951 16.9861 73.5258 17.1922 73.5409C17.2073 73.5409 17.2173 73.5409 17.2324 73.5409C17.4234 73.5409 17.5994 73.4454 17.6999 73.2795L20.5 68.7351C20.5804 68.7401 20.6608 68.7602 20.7413 68.7602C20.8267 68.7602 20.9021 68.7401 20.9826 68.7351L23.7826 73.2795C23.8832 73.4454 24.0591 73.5409 24.2501 73.5409C24.2652 73.5409 24.2753 73.5409 24.2904 73.5409C24.4965 73.5258 24.6724 73.4002 24.7579 73.2091L25.4013 71.7161L27.0251 71.8116C27.2362 71.8317 27.4272 71.7211 27.5328 71.5452C27.6384 71.3692 27.6384 71.148 27.5278 70.9721L24.8835 66.6589ZM17.3229 71.8066L16.9459 70.9319C16.8554 70.7207 16.6342 70.58 16.408 70.6001L15.4528 70.6554L17.3983 67.4984C17.9563 67.981 18.6098 68.3379 19.3337 68.5491L17.3229 71.8066ZM20.7463 67.6643C18.5143 67.6643 16.6995 65.8496 16.6995 63.6175C16.6995 61.3855 18.5143 59.5708 20.7463 59.5708C22.9783 59.5708 24.7931 61.3855 24.7931 63.6175C24.7931 65.8496 22.9783 67.6643 20.7463 67.6643ZM25.0947 70.5951C24.8685 70.575 24.6473 70.7157 24.5568 70.9269L24.1798 71.8016L22.1689 68.544C22.8928 68.3329 23.5464 67.976 24.1044 67.4934L26.0498 70.6504L25.0947 70.5951Z" fill="#1E1E1E"/>
<path d="M57.3632 44.5593C57.6196 43.9812 57.4235 43.3327 56.9309 43.1166C56.4382 42.9004 55.83 43.197 55.5786 43.7751C55.3222 44.3532 55.5183 45.0017 56.0109 45.2179C56.4986 45.434 57.1068 45.1425 57.3632 44.5593Z" fill="#1E1E1E"/>
<path d="M20.7467 14.1156C21.2846 14.1156 21.722 13.6028 21.722 12.9694C21.722 12.336 21.2846 11.8232 20.7467 11.8232C20.2088 11.8232 19.7715 12.336 19.7715 12.9694C19.7765 13.6028 20.2088 14.1156 20.7467 14.1156Z" fill="#1E1E1E"/>
<path d="M26.7135 14.1156C27.2514 14.1156 27.6888 13.6028 27.6888 12.9694C27.6888 12.336 27.2514 11.8232 26.7135 11.8232C26.1756 11.8232 25.7383 12.336 25.7383 12.9694C25.7383 13.6028 26.1756 14.1156 26.7135 14.1156Z" fill="#1E1E1E"/>
<path d="M0.391947 30.1121C-1.85011 39.6634 6.25346 42.7048 6.36406 42.745L11.1749 44.4793V75.0387C11.1749 75.3453 11.4213 75.5916 11.7279 75.5916H79.447C79.7537 75.5916 80 75.3453 80 75.0387V30.2327C80 29.9261 79.7537 29.6798 79.447 29.6798H34.9478C33.9574 25.7185 30.6949 22.7425 29.2722 21.6064C32.4041 19.5754 34.4601 16.2023 34.4601 12.3868C34.4601 10.7178 34.058 9.13932 33.3542 7.71164C33.3391 7.6664 33.314 7.62618 33.2888 7.58597C31.3534 3.79056 27.2061 1.15137 22.4003 1.15137C17.5894 1.15137 13.4371 3.79558 11.5067 7.60105C11.4866 7.63624 11.4665 7.67143 11.4514 7.70662C10.7476 9.13429 10.3404 10.7178 10.3404 12.3868C10.3404 15.5186 11.7279 18.3589 13.9549 20.3948C10.441 20.5406 2.34244 21.7823 0.391947 30.1121ZM7.284 41.9055L10.8029 33.4752C12.8087 34.189 16.8706 35.7021 17.7955 36.3456C18.1173 36.5718 18.258 36.8785 18.2077 37.2505C18.1374 37.7733 17.7 38.276 17.132 38.5474C16.1869 38.09 15.2569 37.8788 15.2167 37.8688C14.915 37.8034 14.6235 37.9894 14.5581 38.286C14.4928 38.5826 14.6788 38.8792 14.9754 38.9446C14.9854 38.9446 15.9808 39.1708 16.8706 39.6433C17.333 39.8897 17.1169 40.5231 17.0716 40.6487C16.9007 41.1012 16.393 41.7195 15.7194 41.5586H15.7143C15.5987 41.4682 15.468 41.3877 15.3273 41.3123L13.8694 40.7744C13.5829 40.6688 13.2662 40.8146 13.1606 41.1012C13.055 41.3877 13.2008 41.7044 13.4874 41.81L14.8849 42.3227C15.4177 42.5992 15.6339 43.2326 15.3725 43.7756C15.1161 44.3034 14.4928 44.5397 13.9247 44.2984L7.284 41.9055ZM19.2684 31.4845L20.5956 32.8116C20.8117 33.0278 21.1586 33.0278 21.3748 32.8116L26.8593 27.3271L30.157 30.6248L34.0932 34.561C34.1233 34.6012 34.1535 34.6314 34.1937 34.6615L41.2315 41.7044L36.1392 46.7968L35.3952 46.0528C35.4806 45.2183 35.2544 44.4894 34.7366 43.9716C33.5854 42.8254 31.459 43.1572 29.8855 44.7307C29.1616 45.4546 28.674 46.3343 28.5132 47.214C28.3724 47.9832 28.4981 48.6719 28.85 49.2148C28.3473 49.7175 28.0557 50.4515 28.0507 51.2256C27.5077 51.2709 26.9699 51.5876 26.5727 52.1405C26.1303 52.7639 25.9393 53.6135 26.1856 54.3625C25.9343 54.4329 25.698 54.5485 25.4869 54.7043L21.3748 50.5922C21.1586 50.376 20.8117 50.376 20.5956 50.5922L19.2684 51.9193C19.1377 52.05 19.0824 52.231 19.1176 52.412C19.2282 53.0002 19.1176 53.4928 18.806 53.8045C18.1173 54.4932 16.6091 54.1463 15.5133 53.0454C14.4174 51.9495 14.0705 50.4414 14.7542 49.7527C15.0658 49.441 15.5635 49.3304 16.1467 49.441C16.3276 49.4762 16.5086 49.4159 16.6393 49.2902L17.9664 47.9631C18.1826 47.7469 18.1826 47.4 17.9664 47.1839L15.7646 44.982C16.0059 44.786 16.2221 44.5497 16.3678 44.2481C16.6242 43.7102 16.6494 43.1271 16.4684 42.6043C17.2275 42.3931 17.8307 41.7547 18.1022 41.0358C18.3435 40.3974 18.2831 39.7891 18.0167 39.3116C18.7104 38.8491 19.1981 38.1403 19.3036 37.3862C19.4092 36.607 19.0925 35.8932 18.434 35.4307C17.8508 35.0185 16.3779 34.3901 14.8648 33.7969C14.8396 33.7416 14.8095 33.6863 14.7592 33.6411C14.0705 32.9524 14.4174 31.4443 15.5183 30.3484C16.0863 29.7803 16.76 29.3982 17.4235 29.2776C18.0067 29.167 18.4993 29.2776 18.811 29.5893C19.1227 29.9009 19.2333 30.3936 19.1227 30.9818C19.0824 31.1728 19.1377 31.3588 19.2684 31.4845ZM29.1667 55.5086L27.8496 54.5686C27.7289 54.5032 27.6033 54.4479 27.4776 54.4077C26.9749 53.9352 27.2011 53.1811 27.4826 52.789C27.558 52.6784 27.9702 52.1456 28.4327 52.3919C29.3225 52.8644 30.0665 53.5632 30.0766 53.5732C30.2977 53.7793 30.6446 53.7743 30.8557 53.5531C31.0669 53.3319 31.0568 52.9851 30.8356 52.7739C30.8055 52.7438 30.1067 52.0903 29.2019 51.5624C29.1063 50.9391 29.2823 50.2956 29.6744 49.9437C29.9559 49.6924 30.2827 49.6421 30.6547 49.7829C31.7053 50.185 35.2293 52.7086 36.9435 53.9754L31.9165 61.6064L26.1957 57.4189C25.703 57.0972 25.5522 56.4537 25.8488 55.946C26.1454 55.4383 26.809 55.2523 27.2665 55.5036L28.5282 56.4085C28.7746 56.5844 29.1214 56.5291 29.2974 56.2828C29.4683 56.0315 29.413 55.6846 29.1667 55.5086ZM12.2809 74.4907V44.8815L13.5226 45.3289C13.8041 45.4445 14.0956 45.5049 14.3822 45.5049C14.4827 45.5049 14.5782 45.4747 14.6788 45.4646L16.7951 47.581L16.0511 48.325C15.2267 48.2345 14.4877 48.4658 13.97 48.9836C12.8238 50.1297 13.1556 52.2612 14.729 53.8346C16.3025 55.4081 18.434 55.7399 19.5801 54.5937C20.0979 54.0759 20.3241 53.347 20.2387 52.5125L20.9827 51.7685L24.7931 55.579C24.3407 56.5593 24.6574 57.7356 25.5573 58.3187L31.7254 62.828L40.4222 69.1068C41.7393 70.0569 43.2926 70.5596 44.9164 70.5596H52.5122L53.402 74.4857H12.2809V74.4907ZM54.5431 74.4907L53.6533 70.5646H57.494C57.8006 70.5646 58.047 70.3183 58.047 70.0116C58.047 69.705 57.8006 69.4587 57.494 69.4587H52.9646H44.9264C43.5339 69.4587 42.2068 69.0263 41.0757 68.2119L32.8062 62.2398L37.8333 54.6088L46.0424 60.3899C46.1631 60.4753 46.3139 60.5105 46.4647 60.4804C46.5602 60.4653 56.1719 58.6807 60.5605 59.5554C60.5806 59.5604 60.6057 59.5554 60.6258 59.5554C60.8973 59.6258 61.1687 59.7062 61.4452 59.7565C61.209 60.219 60.8269 60.7217 60.3745 61.2746L60.0377 61.6969C59.2283 62.7325 58.4139 63.9691 58.9317 65.5074C59.9421 68.4985 63.4611 69.2123 66.0148 69.4888C66.3617 69.529 66.8292 69.5592 67.3721 69.5592C68.7043 69.5592 70.4939 69.343 72.0271 68.4432C72.0472 68.5387 72.0673 68.6342 72.0874 68.7348C72.4444 70.7657 72.7963 72.7363 73.118 74.4857H54.5431V74.4907ZM52.5876 50.2453C54.3571 50.2453 55.8501 48.5713 55.9205 48.4909C56.0211 48.3753 56.0713 48.2245 56.0563 48.0686C56.0412 47.9178 55.9607 47.7771 55.8401 47.6866L52.6228 45.2786C52.7334 44.9066 52.8591 44.5397 53.0199 44.1777C53.8594 42.2624 55.2821 40.7141 57.117 39.6836C57.5694 41.1967 59.1077 44.5899 63.9688 45.6406C64.8485 45.8316 65.4166 46.5153 65.4216 47.3799C65.4266 48.2898 64.7379 49.5064 62.7874 49.9387C62.6718 49.9638 62.5713 50.0242 62.4959 50.1096C62.33 50.2956 58.4944 54.7244 61.3246 57.9518C61.5357 58.1931 61.6513 58.4344 61.6865 58.6857C60.7616 58.5249 59.8567 58.2484 58.987 57.8663C55.5737 56.3683 53.2562 53.4576 52.5021 50.2453C52.5223 50.2353 52.5574 50.2453 52.5876 50.2453ZM52.291 49.1042C52.1905 48.2245 52.2156 47.3397 52.3564 46.455L54.6587 48.1792C54.1309 48.6367 53.2059 49.2701 52.291 49.1042ZM73.2236 63.1246C73.4699 63.9239 73.7112 65.4471 72.565 66.6435C70.6497 68.6493 67.4224 68.5387 66.1254 68.3979C63.8683 68.1516 60.7766 67.5534 59.9673 65.1555C59.6556 64.2305 60.0728 63.4363 60.9023 62.3756L61.2291 61.9684C62.1993 60.7669 63.6722 58.9572 62.144 57.2128C60.1834 54.9707 62.6467 51.6529 63.2047 50.9592C65.6528 50.3409 66.5225 48.6518 66.5175 47.3649C66.5125 45.9824 65.5825 44.8513 64.195 44.5547C59.5752 43.5544 58.3888 40.3119 58.1123 39.1809C58.3436 39.0803 58.5798 38.9898 58.8211 38.9094C61.4905 37.9794 64.4413 38.1201 67.1258 39.3015C73.1934 41.9658 75.5762 49.6522 74.3697 55.5438C74.234 56.1973 74.0229 56.871 73.8017 57.5848C73.2386 59.3845 72.6505 61.2495 73.2236 63.1246ZM78.8991 74.4907H74.234C73.9072 72.6961 73.5403 70.6551 73.1683 68.5488C73.118 68.2672 73.0577 68.0008 72.9973 67.7294C73.118 67.6238 73.2487 67.5232 73.3643 67.4026C74.4853 66.2363 74.8171 64.5573 74.2792 62.7978C73.8067 61.2545 74.3396 59.5554 74.8523 57.9116C75.0735 57.2028 75.3047 56.4738 75.4505 55.765C76.7224 49.5315 74.3949 41.2872 67.5682 38.2911C64.6273 36.9991 61.3899 36.8483 58.4541 37.8688C55.5083 38.8943 53.216 40.9755 52.0045 43.7303C51.7783 44.2481 51.6124 44.7709 51.4716 45.3038C51.4565 45.339 51.4465 45.3741 51.4414 45.4144C50.2299 50.2654 52.5926 55.5287 57.2577 58.2182C52.9395 58.2433 47.6661 59.1432 46.4798 59.3593L37.9992 53.3822C37.9992 53.3822 37.9992 53.3822 37.9941 53.3822C37.3909 52.9298 32.5247 49.3153 31.0367 48.7473C30.6195 48.5864 30.1972 48.5713 29.8051 48.6669C29.2773 47.9329 29.6342 46.5505 30.6647 45.5199C31.7606 44.419 33.2687 44.0772 33.9574 44.7609C34.2691 45.0725 34.3797 45.5652 34.2691 46.1533C34.2339 46.3343 34.2942 46.5153 34.4199 46.646L35.7471 47.9731C35.8526 48.0787 35.9883 48.134 36.1392 48.134C36.29 48.134 36.4257 48.0737 36.5313 47.9731L42.4028 42.1016C42.619 41.8854 42.619 41.5385 42.4028 41.3224L35.8727 34.7923H78.8991V74.4907ZM78.8991 30.7907V33.6863H34.7718L31.8762 30.7907H78.8991ZM22.4003 2.25731C26.4521 2.25731 29.9911 4.30834 31.8863 7.33964H12.9143C14.8095 4.30834 18.3485 2.25731 22.4003 2.25731ZM11.4414 12.3968C11.4414 10.9943 11.748 9.66213 12.306 8.44559H32.4895C33.0475 9.66213 33.3542 10.9943 33.3542 12.3968C33.3542 17.9869 28.4377 22.5313 22.3953 22.5313C16.3578 22.5263 11.4414 17.9819 11.4414 12.3968ZM23.8229 23.5468L22.4003 25.5878L20.9676 23.5468C21.4401 23.5971 21.9127 23.6322 22.4003 23.6322C22.8829 23.6322 23.3554 23.5971 23.8229 23.5468ZM15.3725 21.5058C16.579 22.3152 17.9514 22.9184 19.4343 23.2703L21.9529 26.8646C22.0534 27.0104 22.2243 27.1009 22.4053 27.1009C22.5863 27.1009 22.7522 27.0104 22.8577 26.8646L25.3612 23.2753C26.3817 23.034 27.3519 22.6821 28.2517 22.2146C29.2421 22.9687 32.7308 25.8492 33.8167 29.6848H30.7753L27.2514 26.1608C27.0352 25.9447 26.6883 25.9447 26.4722 26.1608L20.9877 31.6453L20.2437 30.9013C20.3291 30.0668 20.1029 29.3379 19.5851 28.8201C19.0121 28.2471 18.1675 28.0309 17.2124 28.2018C16.3327 28.3627 15.4529 28.8503 14.729 29.5742C13.608 30.6952 13.1304 32.0978 13.3567 33.2288C12.0949 32.7563 11.0291 32.3793 10.7175 32.2687C10.5214 32.1732 9.15909 31.394 10.1645 29.2173C10.2902 28.9408 10.1695 28.614 9.89303 28.4833C9.61655 28.3577 9.28979 28.4733 9.15909 28.7548C8.05817 31.1376 9.13395 32.4446 9.80757 32.9825L6.25346 41.4983C4.63979 40.7392 -0.276648 37.7683 1.45768 30.3584C3.64946 21.0584 14.0554 21.4254 15.3725 21.5058Z" fill="#1E1E1E"/>
<path d="M0.391947 30.1121C-1.85011 39.6634 6.25346 42.7048 6.36406 42.745L11.1749 44.4793V75.0387C11.1749 75.3453 11.4213 75.5916 11.7279 75.5916H79.447C79.7537 75.5916 80 75.3453 80 75.0387V30.2327C80 29.9261 79.7537 29.6798 79.447 29.6798H34.9478C33.9574 25.7185 30.6949 22.7425 29.2722 21.6064C32.4041 19.5754 34.4601 16.2023 34.4601 12.3868C34.4601 10.7178 34.058 9.13932 33.3542 7.71164C33.3391 7.6664 33.314 7.62618 33.2888 7.58597C31.3534 3.79056 27.2061 1.15137 22.4003 1.15137C17.5894 1.15137 13.4371 3.79558 11.5067 7.60105C11.4866 7.63624 11.4665 7.67143 11.4514 7.70662C10.7476 9.13429 10.3404 10.7178 10.3404 12.3868C10.3404 15.5186 11.7279 18.3589 13.9549 20.3948C10.441 20.5406 2.34244 21.7823 0.391947 30.1121ZM7.284 41.9055L10.8029 33.4752C12.8087 34.189 16.8706 35.7021 17.7955 36.3456C18.1173 36.5718 18.258 36.8785 18.2077 37.2505C18.1374 37.7733 17.7 38.276 17.132 38.5474C16.1869 38.09 15.2569 37.8788 15.2167 37.8688C14.915 37.8034 14.6235 37.9894 14.5581 38.286C14.4928 38.5826 14.6788 38.8792 14.9754 38.9446C14.9854 38.9446 15.9808 39.1708 16.8706 39.6433C17.333 39.8897 17.1169 40.5231 17.0716 40.6487C16.9007 41.1012 16.393 41.7195 15.7194 41.5586H15.7143C15.5987 41.4682 15.468 41.3877 15.3273 41.3123L13.8694 40.7744C13.5829 40.6688 13.2662 40.8146 13.1606 41.1012C13.055 41.3877 13.2008 41.7044 13.4874 41.81L14.8849 42.3227C15.4177 42.5992 15.6339 43.2326 15.3725 43.7756C15.1161 44.3034 14.4928 44.5397 13.9247 44.2984L7.284 41.9055ZM19.2684 31.4845L20.5956 32.8116C20.8117 33.0278 21.1586 33.0278 21.3748 32.8116L26.8593 27.3271L30.157 30.6248L34.0932 34.561C34.1233 34.6012 34.1535 34.6314 34.1937 34.6615L41.2315 41.7044L36.1392 46.7968L35.3952 46.0528C35.4806 45.2183 35.2544 44.4894 34.7366 43.9716C33.5854 42.8254 31.459 43.1572 29.8855 44.7307C29.1616 45.4546 28.674 46.3343 28.5132 47.214C28.3724 47.9832 28.4981 48.6719 28.85 49.2148C28.3473 49.7175 28.0557 50.4515 28.0507 51.2256C27.5077 51.2709 26.9699 51.5876 26.5727 52.1405C26.1303 52.7639 25.9393 53.6135 26.1856 54.3625C25.9343 54.4329 25.698 54.5485 25.4869 54.7043L21.3748 50.5922C21.1586 50.376 20.8117 50.376 20.5956 50.5922L19.2684 51.9193C19.1377 52.05 19.0824 52.231 19.1176 52.412C19.2282 53.0002 19.1176 53.4928 18.806 53.8045C18.1173 54.4932 16.6091 54.1463 15.5133 53.0454C14.4174 51.9495 14.0705 50.4414 14.7542 49.7527C15.0658 49.441 15.5635 49.3304 16.1467 49.441C16.3276 49.4762 16.5086 49.4159 16.6393 49.2902L17.9664 47.9631C18.1826 47.7469 18.1826 47.4 17.9664 47.1839L15.7646 44.982C16.0059 44.786 16.2221 44.5497 16.3678 44.2481C16.6242 43.7102 16.6494 43.1271 16.4684 42.6043C17.2275 42.3931 17.8307 41.7547 18.1022 41.0358C18.3435 40.3974 18.2831 39.7891 18.0167 39.3116C18.7104 38.8491 19.1981 38.1403 19.3036 37.3862C19.4092 36.607 19.0925 35.8932 18.434 35.4307C17.8508 35.0185 16.3779 34.3901 14.8648 33.7969C14.8396 33.7416 14.8095 33.6863 14.7592 33.6411C14.0705 32.9524 14.4174 31.4443 15.5183 30.3484C16.0863 29.7803 16.76 29.3982 17.4235 29.2776C18.0067 29.167 18.4993 29.2776 18.811 29.5893C19.1227 29.9009 19.2333 30.3936 19.1227 30.9818C19.0824 31.1728 19.1377 31.3588 19.2684 31.4845ZM29.1667 55.5086L27.8496 54.5686C27.7289 54.5032 27.6033 54.4479 27.4776 54.4077C26.9749 53.9352 27.2011 53.1811 27.4826 52.789C27.558 52.6784 27.9702 52.1456 28.4327 52.3919C29.3225 52.8644 30.0665 53.5632 30.0766 53.5732C30.2977 53.7793 30.6446 53.7743 30.8557 53.5531C31.0669 53.3319 31.0568 52.9851 30.8356 52.7739C30.8055 52.7438 30.1067 52.0903 29.2019 51.5624C29.1063 50.9391 29.2823 50.2956 29.6744 49.9437C29.9559 49.6924 30.2827 49.6421 30.6547 49.7829C31.7053 50.185 35.2293 52.7086 36.9435 53.9754L31.9165 61.6064L26.1957 57.4189C25.703 57.0972 25.5522 56.4537 25.8488 55.946C26.1454 55.4383 26.809 55.2523 27.2665 55.5036L28.5282 56.4085C28.7746 56.5844 29.1214 56.5291 29.2974 56.2828C29.4683 56.0315 29.413 55.6846 29.1667 55.5086ZM12.2809 74.4907V44.8815L13.5226 45.3289C13.8041 45.4445 14.0956 45.5049 14.3822 45.5049C14.4827 45.5049 14.5782 45.4747 14.6788 45.4646L16.7951 47.581L16.0511 48.325C15.2267 48.2345 14.4877 48.4658 13.97 48.9836C12.8238 50.1297 13.1556 52.2612 14.729 53.8346C16.3025 55.4081 18.434 55.7399 19.5801 54.5937C20.0979 54.0759 20.3241 53.347 20.2387 52.5125L20.9827 51.7685L24.7931 55.579C24.3407 56.5593 24.6574 57.7356 25.5573 58.3187L31.7254 62.828L40.4222 69.1068C41.7393 70.0569 43.2926 70.5596 44.9164 70.5596H52.5122L53.402 74.4857H12.2809V74.4907ZM54.5431 74.4907L53.6533 70.5646H57.494C57.8006 70.5646 58.047 70.3183 58.047 70.0116C58.047 69.705 57.8006 69.4587 57.494 69.4587H52.9646H44.9264C43.5339 69.4587 42.2068 69.0263 41.0757 68.2119L32.8062 62.2398L37.8333 54.6088L46.0424 60.3899C46.1631 60.4753 46.3139 60.5105 46.4647 60.4804C46.5602 60.4653 56.1719 58.6807 60.5605 59.5554C60.5806 59.5604 60.6057 59.5554 60.6258 59.5554C60.8973 59.6258 61.1687 59.7062 61.4452 59.7565C61.209 60.219 60.8269 60.7217 60.3745 61.2746L60.0377 61.6969C59.2283 62.7325 58.4139 63.9691 58.9317 65.5074C59.9421 68.4985 63.4611 69.2123 66.0148 69.4888C66.3617 69.529 66.8292 69.5592 67.3721 69.5592C68.7043 69.5592 70.4939 69.343 72.0271 68.4432C72.0472 68.5387 72.0673 68.6342 72.0874 68.7348C72.4444 70.7657 72.7963 72.7363 73.118 74.4857H54.5431V74.4907ZM52.5876 50.2453C54.3571 50.2453 55.8501 48.5713 55.9205 48.4909C56.0211 48.3753 56.0713 48.2245 56.0563 48.0686C56.0412 47.9178 55.9607 47.7771 55.8401 47.6866L52.6228 45.2786C52.7334 44.9066 52.8591 44.5397 53.0199 44.1777C53.8594 42.2624 55.2821 40.7141 57.117 39.6836C57.5694 41.1967 59.1077 44.5899 63.9688 45.6406C64.8485 45.8316 65.4166 46.5153 65.4216 47.3799C65.4266 48.2898 64.7379 49.5064 62.7874 49.9387C62.6718 49.9638 62.5713 50.0242 62.4959 50.1096C62.33 50.2956 58.4944 54.7244 61.3246 57.9518C61.5357 58.1931 61.6513 58.4344 61.6865 58.6857C60.7616 58.5249 59.8567 58.2484 58.987 57.8663C55.5737 56.3683 53.2562 53.4576 52.5021 50.2453C52.5223 50.2353 52.5574 50.2453 52.5876 50.2453ZM52.291 49.1042C52.1905 48.2245 52.2156 47.3397 52.3564 46.455L54.6587 48.1792C54.1309 48.6367 53.2059 49.2701 52.291 49.1042ZM73.2236 63.1246C73.4699 63.9239 73.7112 65.4471 72.565 66.6435C70.6497 68.6493 67.4224 68.5387 66.1254 68.3979C63.8683 68.1516 60.7766 67.5534 59.9673 65.1555C59.6556 64.2305 60.0728 63.4363 60.9023 62.3756L61.2291 61.9684C62.1993 60.7669 63.6722 58.9572 62.144 57.2128C60.1834 54.9707 62.6467 51.6529 63.2047 50.9592C65.6528 50.3409 66.5225 48.6518 66.5175 47.3649C66.5125 45.9824 65.5825 44.8513 64.195 44.5547C59.5752 43.5544 58.3888 40.3119 58.1123 39.1809C58.3436 39.0803 58.5798 38.9898 58.8211 38.9094C61.4905 37.9794 64.4413 38.1201 67.1258 39.3015C73.1934 41.9658 75.5762 49.6522 74.3697 55.5438C74.234 56.1973 74.0229 56.871 73.8017 57.5848C73.2386 59.3845 72.6505 61.2495 73.2236 63.1246ZM78.8991 74.4907H74.234C73.9072 72.6961 73.5403 70.6551 73.1683 68.5488C73.118 68.2672 73.0577 68.0008 72.9973 67.7294C73.118 67.6238 73.2487 67.5232 73.3643 67.4026C74.4853 66.2363 74.8171 64.5573 74.2792 62.7978C73.8067 61.2545 74.3396 59.5554 74.8523 57.9116C75.0735 57.2028 75.3047 56.4738 75.4505 55.765C76.7224 49.5315 74.3949 41.2872 67.5682 38.2911C64.6273 36.9991 61.3899 36.8483 58.4541 37.8688C55.5083 38.8943 53.216 40.9755 52.0045 43.7303C51.7783 44.2481 51.6124 44.7709 51.4716 45.3038C51.4565 45.339 51.4465 45.3741 51.4414 45.4144C50.2299 50.2654 52.5926 55.5287 57.2577 58.2182C52.9395 58.2433 47.6661 59.1432 46.4798 59.3593L37.9992 53.3822C37.9992 53.3822 37.9992 53.3822 37.9941 53.3822C37.3909 52.9298 32.5247 49.3153 31.0367 48.7473C30.6195 48.5864 30.1972 48.5713 29.8051 48.6669C29.2773 47.9329 29.6342 46.5505 30.6647 45.5199C31.7606 44.419 33.2687 44.0772 33.9574 44.7609C34.2691 45.0725 34.3797 45.5652 34.2691 46.1533C34.2339 46.3343 34.2942 46.5153 34.4199 46.646L35.7471 47.9731C35.8526 48.0787 35.9883 48.134 36.1392 48.134C36.29 48.134 36.4257 48.0737 36.5313 47.9731L42.4028 42.1016C42.619 41.8854 42.619 41.5385 42.4028 41.3224L35.8727 34.7923H78.8991V74.4907ZM78.8991 30.7907V33.6863H34.7718L31.8762 30.7907H78.8991ZM22.4003 2.25731C26.4521 2.25731 29.9911 4.30834 31.8863 7.33964H12.9143C14.8095 4.30834 18.3485 2.25731 22.4003 2.25731ZM11.4414 12.3968C11.4414 10.9943 11.748 9.66213 12.306 8.44559H32.4895C33.0475 9.66213 33.3542 10.9943 33.3542 12.3968C33.3542 17.9869 28.4377 22.5313 22.3953 22.5313C16.3578 22.5263 11.4414 17.9819 11.4414 12.3968ZM23.8229 23.5468L22.4003 25.5878L20.9676 23.5468C21.4401 23.5971 21.9127 23.6322 22.4003 23.6322C22.8829 23.6322 23.3554 23.5971 23.8229 23.5468ZM15.3725 21.5058C16.579 22.3152 17.9514 22.9184 19.4343 23.2703L21.9529 26.8646C22.0534 27.0104 22.2243 27.1009 22.4053 27.1009C22.5863 27.1009 22.7522 27.0104 22.8577 26.8646L25.3612 23.2753C26.3817 23.034 27.3519 22.6821 28.2517 22.2146C29.2421 22.9687 32.7308 25.8492 33.8167 29.6848H30.7753L27.2514 26.1608C27.0352 25.9447 26.6883 25.9447 26.4722 26.1608L20.9877 31.6453L20.2437 30.9013C20.3291 30.0668 20.1029 29.3379 19.5851 28.8201C19.0121 28.2471 18.1675 28.0309 17.2124 28.2018C16.3327 28.3627 15.4529 28.8503 14.729 29.5742C13.608 30.6952 13.1304 32.0978 13.3567 33.2288C12.0949 32.7563 11.0291 32.3793 10.7175 32.2687C10.5214 32.1732 9.15909 31.394 10.1645 29.2173C10.2902 28.9408 10.1695 28.614 9.89303 28.4833C9.61655 28.3577 9.28979 28.4733 9.15909 28.7548C8.05817 31.1376 9.13395 32.4446 9.80757 32.9825L6.25346 41.4983C4.63979 40.7392 -0.276648 37.7683 1.45768 30.3584C3.64946 21.0584 14.0554 21.4254 15.3725 21.5058Z" fill="#1E1E1E"/>
<path d="M26.2858 15.6797H20.4846C20.178 15.6797 19.9316 15.926 19.9316 16.2327C19.9316 18.1379 21.48 19.6862 23.3852 19.6862C25.2905 19.6862 26.8388 18.1379 26.8388 16.2327C26.8388 15.926 26.5925 15.6797 26.2858 15.6797ZM23.3852 18.5803C22.2793 18.5803 21.3493 17.8111 21.1029 16.7806H25.6725C25.4212 17.8111 24.4912 18.5803 23.3852 18.5803Z" fill="#1E1E1E"/>
<path d="M51.9086 11.1047C52.2152 11.1047 52.4615 10.8584 52.4615 10.5517V2.75984C52.4615 2.45319 52.2152 2.20687 51.9086 2.20687H45.8409L44.0312 0.186001C43.9256 0.070379 43.7748 0 43.619 0H39.2756C38.969 0 38.7227 0.246324 38.7227 0.552973V10.5517C38.7227 10.8584 38.969 11.1047 39.2756 11.1047H51.9086ZM39.8236 1.10595H43.3676L45.1774 3.12681C45.2829 3.24243 45.4337 3.31281 45.5896 3.31281H51.3556V9.99876H39.8236V1.10595Z" fill="#1E1E1E"/>
<path d="M65.5273 15.1116V25.1103C65.5273 25.417 65.7737 25.6633 66.0803 25.6633H78.7132C79.0199 25.6633 79.2662 25.417 79.2662 25.1103V17.3184C79.2662 17.0118 79.0199 16.7655 78.7132 16.7655H72.6456L70.8359 14.7446C70.7303 14.629 70.5795 14.5586 70.4237 14.5586H66.0803C65.7737 14.5586 65.5273 14.8049 65.5273 15.1116ZM66.6283 15.6595H70.1723L71.9821 17.6804C72.0876 17.796 72.2384 17.8664 72.3943 17.8664H78.1603V24.5574H66.6283V15.6595Z" fill="#1E1E1E"/>
<path d="M67.3373 12.3159C67.4378 12.3159 67.5333 12.2908 67.6238 12.2355C67.8852 12.0746 67.9656 11.7378 67.8048 11.4764C67.6037 11.1446 67.3875 10.8279 67.1714 10.5263C66.9904 10.2799 66.6486 10.2246 66.4022 10.4006C66.1559 10.5816 66.1006 10.9234 66.2766 11.1697C66.4776 11.4512 66.6737 11.7428 66.8647 12.0545C66.9753 12.2204 67.1563 12.3159 67.3373 12.3159Z" fill="#1E1E1E"/>
<path d="M60.576 6.53047C60.6514 6.56566 60.7318 6.58074 60.8072 6.58074C61.0133 6.58074 61.2144 6.46009 61.3099 6.25901C61.4356 5.98253 61.32 5.65577 61.0384 5.52507C60.6815 5.35918 60.3296 5.21339 59.9928 5.08269C59.7113 4.9721 59.3896 5.11285 59.279 5.39437C59.1684 5.68091 59.3091 5.99761 59.5907 6.1082C59.9074 6.23388 60.2391 6.37464 60.576 6.53047Z" fill="#1E1E1E"/>
<path d="M56.5087 5.24288C56.5388 5.24791 56.574 5.25293 56.6042 5.25293C56.8656 5.25293 57.0968 5.06693 57.1471 4.8005C57.2024 4.49888 57.0013 4.21234 56.6997 4.16207C55.9758 4.03136 55.5385 4.00623 55.5385 4.00623C55.2218 3.97104 54.9754 4.22239 54.9553 4.52401C54.9352 4.82563 55.1665 5.08704 55.4731 5.10715C55.4882 5.10212 55.8753 5.12726 56.5087 5.24288Z" fill="#1E1E1E"/>
<path d="M64.5016 8.96274C64.6524 8.96274 64.8082 8.89739 64.9138 8.77674C65.1149 8.5455 65.0897 8.19863 64.8635 7.99755C64.572 7.74117 64.2754 7.5049 63.9737 7.27869C63.7325 7.09771 63.3856 7.14798 63.1996 7.38928C63.0186 7.63058 63.0689 7.97744 63.3102 8.16344C63.5867 8.36955 63.8632 8.59074 64.1346 8.83204C64.2452 8.9175 64.3759 8.96274 64.5016 8.96274Z" fill="#1E1E1E"/>
</svg>
