<svg width="18" height="24" viewBox="0 0 18 24" fill="none" xmlns="http://www.w3.org/2000/svg">
<path d="M9.08163 22.9C13.7712 22.9 17.5633 19.0461 17.5633 14.3039C17.5633 12.148 16.5902 9.82624 15.35 7.73157C14.1042 5.62737 12.5593 3.70354 11.3545 2.33237C10.1324 0.941468 8.03085 0.941467 6.80872 2.33236C5.60393 3.70354 4.05904 5.62737 2.81326 7.73157C1.57311 9.82624 0.6 12.148 0.6 14.3039C0.6 19.0461 4.39207 22.9 9.08163 22.9Z" fill="#FF7070" stroke="#333333" stroke-width="0.8"/>
<path d="M12 17.3359L12 17.1114C12 15.091 10.5694 14.1931 9.08163 14.1931C7.59385 14.1931 6.16327 15.091 6.16327 17.1114L6.16327 17.3359" stroke="#333333" stroke-width="0.8" stroke-linecap="round"/>
<circle cx="11.3267" cy="11.2749" r="0.497959" fill="black"/>
<circle cx="11.3267" cy="11.2749" r="0.497959" fill="black"/>
<circle cx="11.3267" cy="11.2749" r="0.497959" fill="black"/>
<circle cx="11.3267" cy="11.2749" r="0.497959" fill="black"/>
<circle cx="11.3267" cy="11.2749" r="0.497959" stroke="#333333" stroke-width="0.8"/>
<circle cx="6.83644" cy="11.2749" r="0.497959" fill="black"/>
<circle cx="6.83644" cy="11.2749" r="0.497959" fill="black"/>
<circle cx="6.83644" cy="11.2749" r="0.497959" fill="black"/>
<circle cx="6.83644" cy="11.2749" r="0.497959" fill="black"/>
<circle cx="6.83644" cy="11.2749" r="0.497959" stroke="#333333" stroke-width="0.8"/>
</svg>
