<svg width="24" height="24" viewBox="0 0 24 24" fill="none" xmlns="http://www.w3.org/2000/svg">
<path d="M7 23.4H17C20.5346 23.4 23.4 20.5346 23.4 17V7.48528C23.4 5.7879 22.7257 4.16003 21.5255 2.9598L21.0402 2.47452C19.84 1.27428 18.2121 0.6 16.5147 0.6H7C3.46538 0.6 0.6 3.46538 0.6 7V17C0.6 20.5346 3.46538 23.4 7 23.4Z" fill="#5B89FF" stroke="black" stroke-width="0.8" stroke-linejoin="round"/>
<path d="M7 23.4H17C20.5346 23.4 23.4 20.5346 23.4 17V7.48528C23.4 5.7879 22.7257 4.16003 21.5255 2.9598L21.0402 2.47452C19.84 1.27428 18.2121 0.6 16.5147 0.6H7C3.46538 0.6 0.6 3.46538 0.6 7V17C0.6 20.5346 3.46538 23.4 7 23.4Z" fill="#71D9A2" stroke="black" stroke-width="0.8" stroke-linejoin="round"/>
<path d="M8.25 9.25L5.25 12.5L8.25 15.75" stroke="black" stroke-width="0.8" stroke-linecap="round" stroke-linejoin="round"/>
<path d="M15.75 15.75L18.75 12.5L15.75 9.25" stroke="black" stroke-width="0.8" stroke-linecap="round" stroke-linejoin="round"/>
<path d="M13.75 7.25L10.25 17.25" stroke="black" stroke-width="0.8" stroke-linecap="round"/>
<mask id="path-6-outside-1_1239_2685" maskUnits="userSpaceOnUse" x="18" y="0.537109" width="6" height="6" fill="black">
<rect fill="white" x="18" y="0.537109" width="6" height="6"/>
<path fill-rule="evenodd" clip-rule="evenodd" d="M22.4614 4.99857H19V1.53711C19.648 1.83196 20.2444 2.24252 20.7575 2.7556L21.2428 3.24089C21.7559 3.75402 22.1665 4.35053 22.4614 4.99857Z"/>
</mask>
<path fill-rule="evenodd" clip-rule="evenodd" d="M22.4614 4.99857H19V1.53711C19.648 1.83196 20.2444 2.24252 20.7575 2.7556L21.2428 3.24089C21.7559 3.75402 22.1665 4.35053 22.4614 4.99857Z" fill="#FFF4D9"/>
<path d="M22.4614 4.99857V5.79857C22.7334 5.79857 22.9868 5.66031 23.1341 5.43155C23.2813 5.20279 23.3022 4.91488 23.1895 4.66725L22.4614 4.99857ZM19 4.99857H18.2C18.2 5.4404 18.5582 5.79857 19 5.79857V4.99857ZM19 1.53711L19.3313 0.808954C19.0837 0.696273 18.7958 0.717159 18.567 0.8644C18.3383 1.01164 18.2 1.26505 18.2 1.53711H19ZM20.7575 2.7556L21.3232 2.18992L21.3232 2.18992L20.7575 2.7556ZM21.2428 3.24089L20.6771 3.80657L20.6771 3.80657L21.2428 3.24089ZM22.4614 4.19857H19V5.79857H22.4614V4.19857ZM19.8 4.99857V1.53711H18.2V4.99857H19.8ZM21.3232 2.18992C20.7417 1.60844 20.0657 1.14312 19.3313 0.808954L18.6687 2.26527C19.2302 2.52081 19.7471 2.87661 20.1918 3.32129L21.3232 2.18992ZM21.8084 2.6752L21.3232 2.18992L20.1918 3.32129L20.6771 3.80657L21.8084 2.6752ZM23.1895 4.66725C22.8554 3.93282 22.39 3.25674 21.8084 2.6752L20.6771 3.80657C21.1218 4.2513 21.4776 4.76824 21.7332 5.32989L23.1895 4.66725Z" fill="black" mask="url(#path-6-outside-1_1239_2685)"/>
</svg>
