<svg width="21" height="23" viewBox="0 0 21 23" fill="none" xmlns="http://www.w3.org/2000/svg">
<path fill-rule="evenodd" clip-rule="evenodd" d="M6.43457 18.4453C6.43481 20.7589 8.31044 22.6344 10.6241 22.6344C12.9378 22.6344 14.8134 20.7589 14.8137 18.4453H12.8137C12.8134 19.6544 11.8332 20.6344 10.6241 20.6344C9.41501 20.6344 8.43481 19.6544 8.43457 18.4453H6.43457Z" fill="black"/>
<path d="M10.6187 0.965234C8.65209 0.965234 7.38151 1.5593 6.5795 2.5451C5.7968 3.50718 5.51549 4.77933 5.37247 6.01452C5.31265 6.53117 5.27575 7.05675 5.24033 7.56124C5.23315 7.66347 5.22603 7.76484 5.2188 7.8651C5.1754 8.46646 5.12773 9.0289 5.0394 9.5345C4.85976 10.5628 4.5344 11.2232 3.89224 11.5098C1.99939 12.3547 1.14553 13.2896 0.806335 14.4735C0.529294 15.4405 0.891551 16.3319 1.52524 16.9577C2.15356 17.5782 3.0724 17.9679 4.00662 17.9679H17.2621C18.1893 17.9679 19.1017 17.5843 19.7278 16.9707C20.3592 16.3517 20.7227 15.4689 20.4558 14.5066C20.1232 13.3074 19.2666 12.3628 17.3556 11.5098C16.7133 11.2231 16.3874 10.5625 16.2068 9.53415C16.118 9.02852 16.0698 8.46607 16.0258 7.86469C16.0184 7.7647 16.0112 7.6636 16.004 7.56164C15.968 7.0569 15.9306 6.53103 15.8702 6.0141C15.7258 4.77887 15.4431 3.50683 14.6594 2.54489C13.8565 1.5593 12.5854 0.965234 10.6187 0.965234Z" fill="#AFC6FF" stroke="black" stroke-width="0.8"/>
<path d="M10.4053 3.77344C8.65365 3.77344 7.77783 4.86821 7.77783 8.15254" stroke="black" stroke-width="0.8" stroke-linecap="round"/>
</svg>
