<svg width="59" height="18" viewBox="0 0 59 18" fill="none" xmlns="http://www.w3.org/2000/svg">
<path d="M3.41992 0.703125V13.5H0.554688V0.703125H3.41992ZM8.45605 6.09961V8.31445H2.62012V6.09961H8.45605ZM9.01855 0.703125V2.92676H2.62012V0.703125H9.01855ZM13.167 3.99023V13.5H10.416V3.99023H13.167ZM10.249 1.5293C10.249 1.13086 10.3896 0.805664 10.6709 0.553711C10.9521 0.295898 11.3213 0.166992 11.7783 0.166992C12.2354 0.166992 12.6045 0.295898 12.8857 0.553711C13.1729 0.805664 13.3164 1.13086 13.3164 1.5293C13.3164 1.92188 13.1729 2.24707 12.8857 2.50488C12.6045 2.75684 12.2354 2.88281 11.7783 2.88281C11.3213 2.88281 10.9521 2.75684 10.6709 2.50488C10.3896 2.24707 10.249 1.92188 10.249 1.5293ZM21.1387 3.99023H23.6348V13.1572C23.6348 14.0303 23.4355 14.7715 23.0371 15.3809C22.6445 15.9902 22.0967 16.4531 21.3936 16.7695C20.6904 17.0859 19.8672 17.2441 18.9238 17.2441C18.5137 17.2441 18.0859 17.1885 17.6406 17.0771C17.1953 16.9717 16.7764 16.8105 16.3838 16.5938C15.9912 16.3828 15.6631 16.1133 15.3994 15.7852L16.5684 14.168C16.8379 14.4727 17.1602 14.7188 17.5352 14.9062C17.9102 15.0996 18.3379 15.1963 18.8184 15.1963C19.2578 15.1963 19.6299 15.1172 19.9346 14.959C20.2393 14.8008 20.4707 14.5693 20.6289 14.2646C20.793 13.96 20.875 13.5908 20.875 13.1572V6.21387L21.1387 3.99023ZM14.7842 8.85938V8.6748C14.7842 7.9541 14.8721 7.29785 15.0479 6.70605C15.2236 6.1084 15.4785 5.5957 15.8125 5.16797C16.1523 4.73438 16.5596 4.40039 17.0342 4.16602C17.5146 3.93164 18.0537 3.81445 18.6514 3.81445C19.2959 3.81445 19.8291 3.9375 20.251 4.18359C20.6729 4.42383 21.0156 4.76367 21.2793 5.20312C21.543 5.63672 21.751 6.14941 21.9033 6.74121C22.0557 7.32715 22.1787 7.96289 22.2725 8.64844V8.96484C22.1787 9.62109 22.0439 10.2334 21.8682 10.8018C21.6924 11.3701 21.4639 11.8711 21.1826 12.3047C20.9014 12.7324 20.5498 13.0693 20.1279 13.3154C19.7119 13.5557 19.2139 13.6758 18.6338 13.6758C18.042 13.6758 17.5088 13.5557 17.0342 13.3154C16.5596 13.0752 16.1523 12.7383 15.8125 12.3047C15.4785 11.8711 15.2236 11.3613 15.0479 10.7754C14.8721 10.1895 14.7842 9.55078 14.7842 8.85938ZM17.5264 8.6748V8.85938C17.5264 9.23438 17.5615 9.58301 17.6318 9.90527C17.708 10.2275 17.8193 10.5117 17.9658 10.7578C18.1182 11.0039 18.3057 11.1973 18.5283 11.3379C18.7568 11.4727 19.0234 11.54 19.3281 11.54C19.7734 11.54 20.1338 11.4463 20.4092 11.2588C20.6904 11.0654 20.8955 10.7988 21.0244 10.459C21.1592 10.1191 21.2295 9.72363 21.2354 9.27246V8.34961C21.2354 7.97461 21.1973 7.6377 21.1211 7.33887C21.0449 7.04004 20.9307 6.78809 20.7783 6.58301C20.6318 6.37793 20.4385 6.22266 20.1982 6.11719C19.9639 6.00586 19.6797 5.9502 19.3457 5.9502C19.0469 5.9502 18.7832 6.02051 18.5547 6.16113C18.3262 6.2959 18.1357 6.48633 17.9834 6.73242C17.8311 6.97852 17.7168 7.26855 17.6406 7.60254C17.5645 7.93066 17.5264 8.28809 17.5264 8.6748Z" fill="#F24E1E"/>
<path d="M30.7451 9.52734V0.703125H33.5928V9.52734C33.5928 10.3828 33.3994 11.1211 33.0127 11.7422C32.6318 12.3574 32.1133 12.835 31.457 13.1748C30.8066 13.5088 30.0713 13.6758 29.251 13.6758C28.4072 13.6758 27.6572 13.5352 27.001 13.2539C26.3447 12.9668 25.8291 12.5303 25.4541 11.9443C25.085 11.3525 24.9004 10.5996 24.9004 9.68555H27.7656C27.7656 10.1367 27.8213 10.4941 27.9326 10.7578C28.0498 11.0156 28.2197 11.1973 28.4424 11.3027C28.665 11.4082 28.9346 11.4609 29.251 11.4609C29.5557 11.4609 29.8193 11.3877 30.042 11.2412C30.2646 11.0889 30.4375 10.8691 30.5605 10.582C30.6836 10.2891 30.7451 9.9375 30.7451 9.52734ZM40.5889 11.2324V7.1543C40.5889 6.86719 40.5449 6.62109 40.457 6.41602C40.3691 6.21094 40.2314 6.0498 40.0439 5.93262C39.8564 5.81543 39.6133 5.75684 39.3145 5.75684C39.0625 5.75684 38.8428 5.80078 38.6553 5.88867C38.4736 5.97656 38.333 6.10254 38.2334 6.2666C38.1396 6.43066 38.0928 6.63281 38.0928 6.87305H35.3506C35.3506 6.44531 35.4473 6.04688 35.6406 5.67773C35.834 5.30859 36.1094 4.9834 36.4668 4.70215C36.8301 4.4209 37.2637 4.2041 37.7676 4.05176C38.2715 3.89355 38.8369 3.81445 39.4639 3.81445C40.208 3.81445 40.8701 3.94043 41.4502 4.19238C42.0361 4.43848 42.499 4.81055 42.8389 5.30859C43.1787 5.80078 43.3486 6.42188 43.3486 7.17188V11.1533C43.3486 11.7275 43.3809 12.1787 43.4453 12.5068C43.5156 12.8291 43.6152 13.1104 43.7441 13.3506V13.5H40.9756C40.8467 13.2246 40.75 12.8848 40.6855 12.4805C40.6211 12.0703 40.5889 11.6543 40.5889 11.2324ZM40.9316 7.69922L40.9492 9.21094H39.5869C39.2822 9.21094 39.0186 9.24902 38.7959 9.3252C38.5791 9.40137 38.4033 9.50684 38.2686 9.6416C38.1338 9.77051 38.0342 9.92285 37.9697 10.0986C37.9111 10.2686 37.8818 10.4561 37.8818 10.6611C37.8818 10.8545 37.9287 11.0303 38.0225 11.1885C38.1162 11.3408 38.2451 11.4609 38.4092 11.5488C38.5732 11.6367 38.7637 11.6807 38.9805 11.6807C39.3379 11.6807 39.6426 11.6104 39.8945 11.4697C40.1523 11.3291 40.3516 11.1592 40.4922 10.96C40.6328 10.7549 40.7031 10.5645 40.7031 10.3887L41.3623 11.5312C41.2568 11.7656 41.1279 12.0088 40.9756 12.2607C40.8232 12.5068 40.6299 12.7383 40.3955 12.9551C40.1611 13.166 39.877 13.3389 39.543 13.4736C39.2148 13.6084 38.8193 13.6758 38.3564 13.6758C37.7588 13.6758 37.2168 13.5557 36.7305 13.3154C36.2441 13.0693 35.8545 12.7324 35.5615 12.3047C35.2744 11.877 35.1309 11.3848 35.1309 10.8281C35.1309 10.3301 35.2217 9.8877 35.4033 9.50098C35.585 9.11426 35.8574 8.78613 36.2207 8.5166C36.5898 8.24707 37.0527 8.04492 37.6094 7.91016C38.166 7.76953 38.8164 7.69922 39.5605 7.69922H40.9316ZM47.9014 5.98535V13.5H45.1592V3.99023H47.7344L47.9014 5.98535ZM47.5498 8.41113L46.8555 8.42871C46.8555 7.76074 46.9346 7.14844 47.0928 6.5918C47.2568 6.0293 47.4941 5.54004 47.8047 5.12402C48.1152 4.70801 48.499 4.38574 48.9561 4.15723C49.4189 3.92871 49.9521 3.81445 50.5557 3.81445C50.9775 3.81445 51.3613 3.87891 51.707 4.00781C52.0527 4.13086 52.3486 4.32715 52.5947 4.59668C52.8467 4.86035 53.04 5.20605 53.1748 5.63379C53.3096 6.05566 53.377 6.5625 53.377 7.1543V13.5H50.6348V7.48828C50.6348 7.06641 50.582 6.74707 50.4766 6.53027C50.377 6.30762 50.2305 6.15527 50.0371 6.07324C49.8438 5.99121 49.6123 5.9502 49.3428 5.9502C49.0498 5.9502 48.7891 6.01465 48.5605 6.14355C48.3379 6.2666 48.1504 6.43945 47.998 6.66211C47.8457 6.88477 47.7314 7.14551 47.6553 7.44434C47.585 7.74316 47.5498 8.06543 47.5498 8.41113ZM53.0957 8.27051L52.2256 8.34082C52.2256 7.69629 52.3018 7.09863 52.4541 6.54785C52.6064 5.99707 52.835 5.51953 53.1396 5.11523C53.4443 4.70508 53.8223 4.38574 54.2734 4.15723C54.7305 3.92871 55.2607 3.81445 55.8643 3.81445C56.3096 3.81445 56.7139 3.87891 57.0771 4.00781C57.4463 4.13672 57.7627 4.34473 58.0264 4.63184C58.2959 4.91895 58.5039 5.29688 58.6504 5.76562C58.7969 6.22852 58.8701 6.79688 58.8701 7.4707V13.5H56.1104V7.4707C56.1104 7.05469 56.0576 6.73828 55.9521 6.52148C55.8525 6.30469 55.7061 6.15527 55.5127 6.07324C55.3252 5.99121 55.0996 5.9502 54.8359 5.9502C54.543 5.9502 54.2881 6.01172 54.0713 6.13477C53.8545 6.25195 53.6729 6.41602 53.5264 6.62695C53.3799 6.83203 53.2715 7.0752 53.2012 7.35645C53.1309 7.6377 53.0957 7.94238 53.0957 8.27051Z" fill="#A259FF"/>
</svg>
