<svg width="16" height="22" viewBox="0 0 16 22" fill="none" xmlns="http://www.w3.org/2000/svg">
<g clip-path="url(#clip0_1195_2059)">
<path d="M4.01871 22.0003C6.21628 22.0003 7.99982 20.3577 7.99982 18.3337V14.667H4.01871C1.82114 14.667 0.0375977 16.3097 0.0375977 18.3337C0.0375977 20.3577 1.82114 22.0003 4.01871 22.0003Z" fill="#0ACF83"/>
<path d="M0.0375977 10.9997C0.0375977 8.97568 1.82114 7.33301 4.01871 7.33301H7.99982V14.6663H4.01871C1.82114 14.6663 0.0375977 13.0237 0.0375977 10.9997Z" fill="#A259FF"/>
<path d="M0.0380859 3.66667C0.0380859 1.64267 1.82162 0 4.0192 0H8.00031V7.33334H4.0192C1.82162 7.33334 0.0380859 5.69067 0.0380859 3.66667Z" fill="#F24E1E"/>
<path d="M8 0H11.9811C14.1787 0 15.9622 1.64267 15.9622 3.66667C15.9622 5.69067 14.1787 7.33334 11.9811 7.33334H8V0Z" fill="#FF7262"/>
<path d="M15.9622 10.9997C15.9622 13.0237 14.1787 14.6663 11.9811 14.6663C9.78354 14.6663 8 13.0237 8 10.9997C8 8.97568 9.78354 7.33301 11.9811 7.33301C14.1787 7.33301 15.9622 8.97568 15.9622 10.9997Z" fill="#1ABCFE"/>
</g>
<defs>
<clipPath id="clip0_1195_2059">
<rect width="15.9276" height="22" fill="white" transform="translate(0.0361328)"/>
</clipPath>
</defs>
</svg>
