<svg width="24" height="23" viewBox="0 0 24 23" fill="none" xmlns="http://www.w3.org/2000/svg">
<path d="M12.0063 0.5V3.64371" stroke="black" stroke-width="0.8" stroke-linecap="round"/>
<path d="M12.0063 19.3555V22.4992" stroke="black" stroke-width="0.8" stroke-linecap="round"/>
<path d="M23.0068 11.5039L19.8631 11.5039" stroke="black" stroke-width="0.8" stroke-linecap="round"/>
<path d="M4.14404 11.5039L1.00034 11.5039" stroke="black" stroke-width="0.8" stroke-linecap="round"/>
<path d="M19.7856 3.72266L17.5627 5.94559" stroke="black" stroke-width="0.8" stroke-linecap="round"/>
<path d="M6.44727 17.0664L4.22433 19.2893" stroke="black" stroke-width="0.8" stroke-linecap="round"/>
<path d="M19.7856 19.2852L17.5627 17.0622" stroke="black" stroke-width="0.8" stroke-linecap="round"/>
<path d="M6.44727 5.93945L4.22433 3.71652" stroke="black" stroke-width="0.8" stroke-linecap="round"/>
<path d="M12.0056 19.5615C16.5086 19.5615 20.0683 16.0018 20.0683 11.4987C20.0683 6.99566 16.5086 3.43594 12.0056 3.43594C7.5025 3.43594 3.94277 6.99566 3.94277 11.4987C3.94277 16.0018 7.5025 19.5615 12.0056 19.5615Z" fill="#FFC700" stroke="black" stroke-width="0.8"/>
<path d="M9.25537 12.2962C9.25537 12.2962 9.25537 10.7243 9.25537 12.4927C9.25537 14.261 10.7039 15.0469 12.0061 15.0469C13.3083 15.0469 14.7569 14.261 14.7569 12.4927C14.7569 10.7243 14.7569 12.2962 14.7569 12.2962" stroke="black" stroke-width="0.8" stroke-linecap="round"/>
<ellipse cx="13.7735" cy="9.73101" rx="0.785695" ry="0.785695" fill="black"/>
<ellipse cx="13.7735" cy="9.73101" rx="0.785695" ry="0.785695" fill="black"/>
<ellipse cx="13.7735" cy="9.73101" rx="0.785695" ry="0.785695" fill="black"/>
<ellipse cx="13.7735" cy="9.73101" rx="0.785695" ry="0.785695" fill="black"/>
<ellipse cx="10.2364" cy="9.73101" rx="0.785695" ry="0.785695" fill="black"/>
<ellipse cx="10.2364" cy="9.73101" rx="0.785695" ry="0.785695" fill="black"/>
<ellipse cx="10.2364" cy="9.73101" rx="0.785695" ry="0.785695" fill="black"/>
<ellipse cx="10.2364" cy="9.73101" rx="0.785695" ry="0.785695" fill="black"/>
</svg>
