<svg width="22" height="23" viewBox="0 0 22 23" fill="none" xmlns="http://www.w3.org/2000/svg">
<path d="M19.9981 2.50189C19.081 1.58478 18.0178 1.03209 16.9839 0.920928C15.962 0.811058 14.9376 1.12779 14.0556 2.00955C14.0554 2.00968 14.0553 2.00982 14.0552 2.00995L4.26228 11.861C2.96964 13.1613 2.07641 14.8046 1.68821 16.5965L1.37744 18.031C0.977055 19.8792 2.62084 21.5229 4.46898 21.1226L5.90349 20.8118C7.69542 20.4236 9.33871 19.5304 10.639 18.2377L20.49 8.4448C20.4901 8.44468 20.4903 8.44456 20.4904 8.44444C21.3722 7.56245 21.6889 6.53801 21.5791 5.51611C21.4679 4.48222 20.9152 3.419 19.9981 2.50189Z" fill="#FFC700" stroke="#333333" stroke-width="0.8"/>
<path d="M19 10L12 4" stroke="#333333" stroke-width="0.8"/>
<mask id="path-3-inside-1_1239_2696" fill="white">
<path fill-rule="evenodd" clip-rule="evenodd" d="M3.32517 12.3047C2.32965 13.5239 1.63296 14.9648 1.29775 16.5121L0.986915 17.9469C0.524936 20.0794 2.42161 21.976 4.55408 21.5141L5.98888 21.2032C7.53618 20.868 8.97708 20.1713 10.1963 19.1758L3.32517 12.3047Z"/>
</mask>
<path fill-rule="evenodd" clip-rule="evenodd" d="M3.32517 12.3047C2.32965 13.5239 1.63296 14.9648 1.29775 16.5121L0.986915 17.9469C0.524936 20.0794 2.42161 21.976 4.55408 21.5141L5.98888 21.2032C7.53618 20.868 8.97708 20.1713 10.1963 19.1758L3.32517 12.3047Z" fill="#FFF4D9"/>
<path d="M3.32517 12.3047L2.7055 11.7987L3.26515 11.1133L3.89085 11.739L3.32517 12.3047ZM1.29775 16.5121L2.07961 16.6815L2.07961 16.6815L1.29775 16.5121ZM0.986915 17.9469L0.205052 17.7775L0.205052 17.7775L0.986915 17.9469ZM4.55408 21.5141L4.72347 22.2959L4.72347 22.2959L4.55408 21.5141ZM5.98888 21.2032L6.15826 21.9851L6.15826 21.9851L5.98888 21.2032ZM10.1963 19.1758L10.762 18.6101L11.3877 19.2358L10.7023 19.7955L10.1963 19.1758ZM3.94484 12.8107C3.02896 13.9323 2.388 15.258 2.07961 16.6815L0.515887 16.3427C0.87791 14.6716 1.63034 13.1155 2.7055 11.7987L3.94484 12.8107ZM2.07961 16.6815L1.76878 18.1163L0.205052 17.7775L0.515887 16.3427L2.07961 16.6815ZM1.76878 18.1163C1.42999 19.6801 2.82089 21.071 4.3847 20.7322L4.72347 22.2959C2.02233 22.8811 -0.380122 20.4786 0.205052 17.7775L1.76878 18.1163ZM4.3847 20.7322L5.8195 20.4214L6.15826 21.9851L4.72347 22.2959L4.3847 20.7322ZM5.8195 20.4214C7.24301 20.113 8.56864 19.472 9.69031 18.5561L10.7023 19.7955C9.38553 20.8706 7.82935 21.6231 6.15826 21.9851L5.8195 20.4214ZM3.89085 11.739L10.762 18.6101L9.6306 19.7415L2.75948 12.8704L3.89085 11.739Z" fill="#333333" mask="url(#path-3-inside-1_1239_2696)"/>
<path fill-rule="evenodd" clip-rule="evenodd" d="M1.963 17.8164C1.62671 19.6671 3.24066 21.2631 5.05859 20.9518L1.963 17.8164Z" fill="#333333"/>
<path d="M1.963 17.8164L1.56945 17.7449L1.70702 16.9878L2.24765 17.5354L1.963 17.8164ZM5.05859 20.9518L5.34324 20.6708L5.88213 21.2166L5.12611 21.346L5.05859 20.9518ZM2.35656 17.8879C2.07037 19.4629 3.44432 20.8224 4.99107 20.5575L5.12611 21.346C3.03701 21.7038 1.18306 19.8713 1.56945 17.7449L2.35656 17.8879ZM2.24765 17.5354L5.34324 20.6708L4.77395 21.2328L1.67836 18.0974L2.24765 17.5354Z" fill="#333333"/>
</svg>
